<?xml version="1.0" standalone="no"?>
<!DOCTYPE svg PUBLIC "-//W3C//DTD SVG 20010904//EN"
 "http://www.w3.org/TR/2001/REC-SVG-20010904/DTD/svg10.dtd">
<svg version="1.0" xmlns="http://www.w3.org/2000/svg"
 width="1125.000000pt" height="750.000000pt" viewBox="0 0 1125.000000 750.000000"
 preserveAspectRatio="xMidYMid meet">

<g transform="translate(0.000000,750.000000) scale(0.100000,-0.100000)"
fill="#000000" stroke="none">
<path d="M4 7300 c0 -113 2 -159 3 -102 2 56 2 148 0 205 -1 56 -3 10 -3 -103z"/>
<path d="M40 7499 c-5 -40 -29 -993 -28 -1094 1 -127 2 -120 9 75 21 618 31
1011 25 1017 -3 3 -6 4 -6 2z"/>
<path d="M2410 7358 c0 -79 -4 -381 -9 -673 -5 -291 -6 -582 -3 -645 6 -96 9
-59 15 225 17 818 20 1235 8 1235 -8 0 -11 -43 -11 -142z"/>
<path d="M5513 7486 c9 -7 17 -19 17 -27 0 -11 -2 -11 -11 1 -9 12 -10 11 -6
-7 3 -13 1 -26 -4 -29 -5 -3 -7 -10 -3 -15 3 -6 -2 -9 -11 -7 -35 6 -26 -24
22 -67 26 -25 53 -45 60 -45 6 0 15 -5 19 -11 5 -8 -16 -9 -77 -4 -46 4 -81 4
-77 0 4 -4 24 -8 45 -9 95 -6 88 -4 70 -24 -21 -23 -21 -38 -1 -46 13 -5 14
-9 4 -21 -10 -12 -9 -16 4 -21 15 -6 15 -9 3 -23 -11 -12 -13 -36 -10 -96 2
-44 4 -98 4 -119 -1 -22 4 -45 10 -53 8 -9 8 -13 0 -13 -17 0 -13 -28 6 -39
12 -6 14 -13 7 -23 -13 -16 -16 -58 -4 -58 10 0 7 -40 -4 -59 -5 -7 -1 -17 10
-25 16 -13 16 -14 -2 -24 -16 -10 -16 -11 -3 -12 22 0 26 -14 23 -73 -1 -26 2
-50 7 -52 4 -3 6 -12 2 -20 -3 -8 -1 -15 3 -15 5 0 10 -12 11 -27 0 -14 8 -30
17 -35 9 -5 16 -16 16 -23 0 -8 5 -15 11 -15 6 0 9 -6 6 -14 -3 -8 1 -17 9
-20 9 -3 12 -10 9 -16 -3 -5 0 -10 7 -10 7 0 22 -18 32 -40 10 -22 27 -47 38
-56 10 -10 18 -25 18 -34 0 -10 16 -28 35 -41 19 -13 39 -35 45 -49 12 -28 89
-114 97 -107 5 5 -109 516 -157 702 -50 197 -100 373 -135 485 -19 58 -43 143
-55 189 -12 45 -29 101 -38 122 -15 35 -20 39 -52 39 -31 -1 -33 -2 -17 -14z
m27 -72 c0 -3 -8 -17 -19 -30 -16 -20 -21 -21 -30 -10 -9 11 -8 14 6 12 11 0
17 5 17 17 -1 9 4 17 12 17 8 0 14 -3 14 -6z"/>
<path d="M5616 7423 c118 -379 244 -858 343 -1310 45 -206 54 -260 42 -253
-53 28 -133 80 -125 80 6 0 32 -14 58 -31 27 -16 50 -28 52 -26 13 13 -18 57
-43 63 -15 3 -53 12 -83 20 -141 38 -160 45 -154 57 4 7 4 9 0 5 -4 -3 -24 1
-44 9 -45 20 -270 20 -405 1 -91 -12 -232 -1 -246 20 -10 16 -49 24 -48 10 1
-33 -4 -48 -17 -48 -15 0 -26 -21 -26 -51 0 -11 -4 -17 -10 -14 -13 8 -13 -16
0 -50 5 -14 14 -24 19 -21 10 6 99 19 121 17 50 -4 112 -2 117 3 3 3 12 -2 19
-12 8 -10 13 -12 14 -4 0 19 20 14 20 -5 0 -10 4 -14 8 -8 4 6 14 16 23 23 14
11 16 9 13 -15 -2 -16 -1 -22 2 -15 3 7 14 17 24 22 15 8 17 6 12 -13 -7 -27
-42 -87 -50 -87 -15 0 -152 33 -216 52 -38 11 -81 20 -95 20 -25 0 -81 26 -81
38 0 3 -7 14 -16 25 -13 17 -16 18 -25 5 -10 -13 -10 -13 -6 0 12 38 -65 86
-119 75 -19 -3 -34 -11 -34 -16 0 -6 9 -8 20 -4 12 4 20 2 20 -5 0 -6 5 -8 10
-5 6 3 10 1 10 -5 0 -6 10 -24 22 -40 17 -24 19 -32 9 -44 -7 -8 -10 -19 -7
-24 3 -6 -6 -17 -19 -26 -14 -9 -23 -21 -19 -27 3 -5 0 -16 -6 -24 -10 -12
-10 -18 0 -30 8 -10 9 -15 2 -15 -13 0 -4 -31 12 -42 6 -4 22 -8 36 -8 20 0
22 2 10 10 -12 7 -8 10 15 10 23 0 27 -3 15 -10 -12 -8 -11 -10 7 -10 28 0 39
-17 16 -23 -11 -3 -6 -5 12 -7 26 -1 27 -3 10 -10 -27 -12 -1 -12 47 -1 28 7
35 6 31 -4 -3 -9 5 -15 24 -17 45 -6 -71 -38 -175 -48 l-87 -9 100 4 c55 3
114 7 130 10 24 4 22 2 -10 -10 l-40 -15 45 6 c25 4 77 8 115 9 68 3 69 3 35
-11 l-35 -13 50 4 c43 5 47 4 25 -6 -14 -6 -41 -15 -60 -20 -26 -6 -18 -7 30
-4 l65 4 -65 -15 c-47 -11 -101 -14 -195 -11 -89 2 -120 1 -100 -6 34 -10 195
-12 276 -3 l54 5 -45 -14 -45 -14 70 5 c39 3 90 7 115 10 40 4 42 3 20 -7 -15
-7 -88 -12 -190 -12 -176 0 -172 -10 10 -26 l95 -8 -105 -3 c-86 -2 -98 -4
-65 -11 22 -4 78 -9 125 -10 73 -2 79 -3 40 -9 -44 -7 -44 -7 18 -8 39 -1 61
-6 57 -12 -3 -5 4 -11 17 -11 13 -1 1 -5 -27 -10 -27 -5 -75 -7 -105 -4 l-55
5 45 -14 c39 -11 42 -14 20 -18 -21 -4 -18 -6 18 -13 34 -6 41 -11 37 -25 -8
-26 41 -40 149 -42 l91 -1 -77 -6 c-106 -9 -109 -21 -7 -22 65 -2 75 -3 44 -9
l-40 -6 40 -5 40 -5 -35 -11 -35 -11 38 -1 c23 -1 36 -5 32 -11 -4 -6 7 -10
25 -10 50 0 24 -20 -28 -21 -26 -1 -38 -4 -27 -6 11 -3 24 -11 30 -18 5 -7 24
-16 40 -20 l30 -8 -25 -7 c-21 -6 -15 -9 35 -20 46 -10 55 -14 40 -20 -18 -7
-17 -9 10 -20 17 -6 66 -15 110 -19 44 -5 70 -9 58 -10 -38 -2 -37 -21 1 -21
35 0 57 -15 34 -22 -6 -2 17 -13 53 -23 75 -22 89 -25 89 -19 0 9 -72 148 -90
173 -10 14 -48 73 -86 131 -37 58 -72 111 -77 118 -5 6 -7 12 -4 12 22 0 221
-319 324 -521 171 -333 424 -1055 537 -1530 25 -107 55 -229 65 -273 l19 -78
-40 6 c-60 10 -107 38 -170 103 -81 82 -158 190 -247 343 -24 41 -53 91 -66
110 -164 259 -212 332 -283 430 -46 63 -91 122 -101 130 -9 8 -43 46 -75 83
-41 48 -56 73 -51 85 18 44 45 172 45 215 0 104 -58 211 -138 256 -28 15 -104
22 -96 9 3 -5 -2 -8 -10 -8 -9 0 -16 7 -16 15 0 33 -34 10 -38 -25 -2 -19 0
-22 8 -10 6 9 10 10 10 3 0 -22 -12 -43 -22 -37 -6 4 -8 -1 -5 -12 3 -11 9
-41 13 -68 7 -54 13 -51 -56 -30 -18 6 -19 4 -10 -20 8 -23 7 -26 -13 -27 -13
-1 -8 -4 13 -8 33 -6 54 4 44 21 -3 4 0 8 5 8 6 0 11 -7 11 -15 0 -8 7 -15 16
-15 10 0 14 5 10 15 -9 24 21 4 92 -61 36 -33 61 -63 58 -71 -3 -7 -2 -12 2
-12 26 4 32 -4 32 -42 0 -24 -4 -38 -10 -34 -13 8 -13 -8 1 -22 8 -8 8 -17 0
-32 -10 -18 -6 -25 28 -56 86 -78 241 -293 441 -614 103 -165 108 -180 60
-181 -24 0 -141 -62 -200 -107 -30 -22 -74 -50 -97 -62 -61 -31 -215 -182
-269 -264 -26 -40 -51 -73 -55 -75 -4 -2 -5 -11 -2 -21 2 -10 -9 -44 -25 -77
-17 -32 -33 -69 -36 -81 -4 -11 -13 -24 -21 -27 -10 -3 -8 5 6 29 l20 33 -54
7 c-51 7 -53 8 -49 34 3 25 0 29 -27 34 -18 4 -31 13 -31 22 0 16 -35 21 -45
5 -3 -5 -13 -6 -22 -3 -13 5 -15 2 -10 -11 4 -10 7 -22 7 -27 0 -5 25 -9 55
-9 30 0 55 -4 55 -10 0 -5 -23 -10 -51 -10 -31 0 -48 -4 -44 -10 3 -5 2 -10
-4 -10 -5 0 -16 -3 -25 -6 -11 -4 -16 -1 -16 10 0 19 -47 33 -69 19 -22 -14
-277 -17 -286 -3 -3 5 -31 10 -61 10 -30 0 -54 5 -54 10 0 6 -5 10 -11 10 -5
0 -7 -5 -4 -10 4 -6 -18 -10 -59 -10 -37 0 -66 4 -66 10 0 6 -9 10 -20 10 -11
0 -20 -4 -20 -10 0 -6 -45 -10 -114 -10 -66 0 -117 -4 -121 -10 -6 -10 7 -14
33 -11 9 1 12 -39 12 -174 l0 -175 30 0 c17 0 30 -4 30 -10 0 -5 -18 -10 -40
-10 -22 0 -40 5 -40 10 0 6 -13 10 -30 10 -33 0 -39 -13 -13 -26 10 -5 251 -9
537 -9 l519 0 8 -22 c10 -29 30 -29 55 -2 10 11 28 26 39 31 18 10 18 9 -2
-14 -26 -28 -40 -82 -24 -92 6 -4 11 -2 11 3 0 6 3 10 8 10 19 -3 33 3 52 23
11 12 20 18 20 14 0 -4 -12 -18 -26 -31 -18 -17 -22 -25 -12 -25 8 0 23 9 32
19 10 11 24 17 32 14 15 -5 84 62 84 81 0 6 -17 -8 -38 -32 -45 -52 -56 -54
-31 -5 10 21 19 43 19 50 0 7 4 13 9 13 5 0 11 10 15 23 3 13 18 35 33 49 100
94 377 330 394 336 23 9 5 30 -33 42 -41 12 -42 13 -19 21 27 11 64 2 56 -12
-9 -14 5 -11 20 5 8 8 30 13 52 11 21 -1 50 1 64 5 14 4 32 4 40 0 13 -9 77
19 114 49 20 16 20 16 1 -6 -22 -27 -11 -29 30 -8 36 18 77 20 72 3 -3 -7 -36
-21 -74 -32 -79 -21 -96 -28 -101 -43 -3 -7 35 -10 107 -9 l111 1 38 -85 c62
-138 227 -606 250 -710 7 -30 19 -69 27 -86 18 -41 22 -69 9 -69 -5 0 -9 7 -8
15 1 8 -4 29 -11 45 -8 17 -17 45 -21 63 -7 33 -19 42 -28 20 -3 -7 -6 -2 -6
12 -1 20 -3 22 -11 10 -8 -12 -10 -10 -11 10 -1 14 -5 1 -9 -29 -5 -29 -12
-57 -17 -61 -4 -4 -276 -13 -603 -19 -327 -7 -721 -16 -875 -21 -154 -5 -473
-12 -710 -16 -236 -3 -454 -9 -483 -14 l-53 -7 -47 91 c-26 50 -62 127 -82
171 -20 44 -48 101 -63 126 -33 56 -34 67 -4 71 18 2 23 10 25 46 l3 43 200
-2 c208 -1 238 4 219 39 -5 10 -12 52 -15 95 -5 61 -11 79 -25 87 -23 12 -40
-8 -19 -21 10 -6 7 -9 -11 -9 -20 0 -22 -2 -10 -10 12 -8 11 -10 -6 -10 -12 0
-24 -6 -27 -14 -3 -8 -20 -14 -40 -14 -31 0 -36 4 -41 30 -3 17 -6 83 -7 147
0 64 -4 153 -7 199 l-7 83 40 11 c72 20 63 30 -20 22 -44 -4 -261 -7 -482 -7
-395 0 -403 0 -470 -23 -267 -91 -446 -136 -415 -103 6 7 12 17 12 21 0 11
-47 10 -54 -1 -9 -14 -45 -20 -53 -9 -3 6 -1 8 5 4 9 -5 46 33 39 41 -2 1 -45
9 -97 17 -51 9 -98 21 -104 27 -12 12 -17 13 139 -15 50 -8 104 -17 120 -18
22 -2 31 -9 33 -25 3 -18 7 -21 25 -13 12 5 40 14 62 19 42 11 117 54 237 136
40 28 102 66 137 84 64 34 65 34 125 22 34 -7 90 -25 126 -42 65 -29 66 -29
300 -32 163 -3 235 -8 238 -16 2 -6 17 -11 33 -11 24 0 29 4 29 23 0 18 10 28
40 42 22 10 40 24 40 31 0 17 -55 44 -94 45 -29 2 -29 2 -4 6 31 5 55 28 38
38 -5 3 -10 1 -10 -4 0 -6 -7 -11 -15 -11 -8 0 -15 5 -15 10 0 6 -7 10 -16 10
-8 0 -13 -4 -9 -9 5 -9 -23 -23 -50 -26 -5 -1 -18 -4 -27 -8 -10 -4 -25 -9
-34 -12 -8 -3 -13 -8 -10 -13 2 -4 -3 -9 -12 -10 -9 -1 -35 -4 -57 -6 -35 -5
-36 -4 -9 3 18 4 45 18 62 30 17 11 35 21 42 21 6 0 26 11 44 25 18 14 44 25
58 25 17 0 27 7 31 20 5 19 14 20 126 20 101 0 121 2 121 15 0 11 -11 15 -36
15 -23 0 -33 4 -28 11 3 6 19 9 35 5 29 -5 29 -5 29 45 0 28 -4 48 -9 45 -13
-8 -34 21 -27 39 3 8 15 15 26 15 11 0 20 4 20 10 0 6 -108 10 -281 12 l-281
3 6 -59 c3 -32 6 -73 6 -90 0 -30 3 -32 79 -55 106 -31 108 -33 77 -65 -22
-25 -25 -26 -23 -8 0 12 5 18 11 15 5 -3 6 -1 3 4 -5 7 -26 4 -62 -9 -30 -12
-52 -24 -50 -28 4 -7 -25 -18 -52 -21 -5 -1 -16 -5 -25 -10 -31 -16 -130 -12
-173 7 -53 24 -135 75 -135 85 0 6 -16 12 -70 26 -36 9 -90 4 -120 -11 -18 -9
-39 -16 -47 -16 -7 0 -22 -4 -33 -10 -11 -5 -28 -14 -38 -19 -11 -5 -25 -5
-33 0 -19 12 -32 11 -24 -1 3 -5 1 -18 -4 -27 -6 -10 -11 -12 -11 -6 0 23 -62
2 -210 -71 -176 -87 -164 -82 -157 -62 9 23 -13 21 -94 -9 -37 -13 -98 -26
-134 -29 -37 -2 -69 -7 -72 -10 -14 -13 -32 -5 -35 17 -3 18 -25 -57 -43 -149
-3 -13 -18 -26 -37 -34 -18 -7 -47 -19 -65 -26 -17 -8 -46 -14 -65 -13 -32 1
-31 1 12 12 l45 12 6 65 c4 36 7 106 8 155 1 55 5 85 10 76 5 -7 11 -9 13 -5
3 5 3 3 1 -5 -7 -26 -13 -136 -7 -121 3 8 14 37 25 63 11 26 17 56 14 67 -6
20 14 77 41 113 l16 22 -6 -28 c-5 -19 -3 -26 4 -22 5 3 10 18 10 32 0 14 8
32 18 39 14 10 15 16 5 32 -10 16 -7 24 21 53 50 51 59 75 51 128 -8 55 -41
114 -90 159 -19 19 -35 40 -35 48 0 8 -6 14 -14 14 -8 0 -17 7 -20 16 -5 14
-9 14 -22 3 -13 -11 -17 -10 -25 4 -5 9 -16 14 -24 11 -12 -5 -14 -23 -10 -93
l4 -86 -13 85 c-7 47 -23 110 -35 141 -19 50 -71 278 -71 314 0 8 -19 53 -42
102 -23 48 -44 92 -46 97 -3 5 1 5 7 1 9 -5 11 5 9 37 -3 43 -3 43 -43 46 -30
2 -36 0 -25 -8 13 -9 13 -10 0 -10 -8 0 -28 10 -45 21 -25 18 -27 20 -7 16 13
-3 22 0 23 6 3 71 10 93 37 114 27 21 38 46 57 137 5 23 8 27 16 15 5 -7 9 -9
9 -4 0 6 -4 16 -9 24 -10 15 20 51 42 51 8 0 24 9 37 20 35 30 114 27 162 -5
28 -19 50 -25 92 -25 65 0 86 20 86 83 0 33 4 39 30 48 23 9 30 17 30 38 0 15
-5 32 -11 38 -16 16 -3 43 20 43 28 0 35 16 17 42 -9 12 -16 26 -16 30 0 15
33 38 54 38 32 0 60 33 51 60 -4 12 -19 36 -35 53 -63 72 -79 105 -69 140 22
77 9 129 -39 156 -24 14 -8 25 17 12 17 -10 20 -9 15 4 -4 8 -10 15 -15 15 -5
0 -9 5 -9 10 0 6 6 10 14 10 27 0 9 61 -35 123 -15 21 -30 57 -34 80 -4 23
-12 47 -17 54 -18 22 -128 74 -128 61 -1 -8 -6 -6 -14 5 -15 19 -39 22 -136
14 l-65 -5 45 13 45 14 -57 -5 c-35 -3 -58 -1 -58 5 0 16 -33 18 -64 3 -21
-10 -35 -11 -51 -4 -17 8 -24 6 -33 -9 -7 -10 -17 -19 -22 -19 -18 0 -11 25
10 38 28 17 16 34 -16 22 -17 -7 -23 -7 -19 0 9 14 -8 12 -41 -5 -16 -8 -41
-15 -56 -15 -29 0 -45 -15 -27 -25 6 -4 0 -13 -16 -21 -15 -8 -30 -12 -34 -10
-4 3 -13 -9 -20 -25 -8 -19 -19 -28 -27 -25 -16 6 -30 -13 -26 -36 2 -12 -3
-18 -17 -18 -12 0 -21 -4 -21 -9 0 -14 34 -8 48 9 11 13 12 12 10 -5 -2 -11
-12 -21 -23 -23 -27 -5 -65 -47 -65 -72 0 -30 -50 -106 -60 -91 -8 13 -24 -22
-21 -46 2 -12 -17 -18 -47 -14 -17 3 -40 -21 -35 -36 3 -7 -18 -33 -46 -59
-27 -25 -49 -53 -49 -62 1 -18 -61 -149 -112 -237 -33 -59 -37 -98 -11 -126
15 -17 20 -18 30 -5 6 7 11 18 10 22 -1 5 -1 20 0 32 2 35 25 21 28 -16 2 -18
4 -46 6 -64 1 -17 9 -34 16 -36 8 -3 11 0 7 7 -4 7 1 11 13 12 30 2 34 3 56
18 14 8 15 11 3 7 -9 -2 -21 1 -27 7 -7 9 -5 13 7 13 9 1 25 4 35 9 12 5 17 3
17 -9 0 -9 6 -16 13 -17 6 0 2 -5 -10 -11 -27 -13 -32 -41 -6 -31 12 5 14 3 8
-7 -5 -9 -4 -11 4 -6 9 6 9 11 0 22 -9 12 -5 14 27 14 34 0 36 1 19 13 -12 10
-14 16 -7 21 7 4 17 4 23 1 11 -8 41 20 52 48 3 9 13 17 22 17 8 0 15 5 15 11
0 5 5 7 10 4 6 -4 7 -12 4 -18 -5 -9 -4 -9 5 -1 10 9 20 8 42 -3 29 -14 30
-17 28 -83 -1 -37 2 -73 6 -79 4 -7 1 -25 -5 -42 -10 -23 -19 -29 -41 -29 -16
0 -29 -5 -29 -11 0 -5 -3 -8 -8 -5 -10 6 -47 -22 -39 -31 4 -3 -23 -17 -60
-30 -36 -12 -69 -25 -71 -28 -9 -9 63 7 73 16 5 5 16 9 25 8 8 0 4 -5 -10 -11
-23 -9 -24 -11 -6 -17 19 -7 19 -8 -2 -13 -14 -4 -22 -14 -22 -28 0 -13 -8
-24 -20 -27 -11 -3 -20 -14 -20 -24 0 -21 -16 -26 -22 -7 -3 7 -10 8 -17 3
-11 -6 -10 -10 3 -17 9 -5 16 -16 16 -23 0 -8 4 -15 9 -15 10 0 25 -50 17 -57
-2 -3 -15 7 -27 21 -12 14 -31 26 -41 26 -18 0 -25 -15 -10 -22 4 -1 17 -20
30 -41 21 -36 21 -67 0 -67 -6 0 -8 7 -5 14 4 10 1 13 -9 9 -7 -3 -14 0 -14 5
0 10 -64 57 -109 81 -15 9 -20 7 -24 -9 -3 -11 -1 -18 3 -15 8 5 70 -26 70
-35 0 -10 -62 -40 -82 -40 -15 0 -19 5 -14 18 6 16 5 16 -8 0 -7 -10 -18 -18
-25 -18 -6 0 -11 -6 -11 -14 0 -8 -9 -18 -21 -21 -12 -4 -30 -14 -40 -24 -11
-9 -23 -16 -28 -16 -14 0 -61 -62 -61 -80 0 -10 -16 -33 -36 -52 -20 -19 -34
-37 -30 -40 3 -4 6 -2 6 4 0 6 9 13 20 16 27 7 26 -18 -1 -37 -13 -9 -19 -21
-16 -30 4 -9 2 -16 -2 -16 -13 0 -51 -82 -51 -108 0 -20 -10 -27 -33 -23 -4 1
-4 -11 -1 -25 5 -21 4 -25 -6 -19 -9 6 -12 4 -8 -6 3 -8 9 -23 13 -34 6 -16 5
-17 -4 -5 -9 13 -15 8 -13 -12 1 -3 -5 -12 -13 -18 -21 -18 -19 -41 3 -33 16
5 16 5 -1 -8 -14 -11 -19 -32 -21 -94 -2 -56 -10 -95 -25 -129 -21 -49 -23
-77 -1 -37 6 12 15 19 20 16 10 -6 2 -64 -11 -81 -5 -6 -4 -15 2 -21 12 -12
23 -96 21 -163 -3 -94 -13 -216 -19 -230 -4 -8 -7 -17 -7 -20 -1 -3 -5 -11
-10 -18 -7 -11 -4 -12 12 -3 11 6 30 11 41 11 12 0 21 5 21 11 0 5 4 8 10 4
17 -11 0 -31 -43 -50 -42 -18 -97 -66 -97 -84 0 -6 5 -13 10 -16 6 -3 10 -2
10 4 0 14 39 25 80 22 43 -3 48 -8 29 -24 -8 -6 -27 -29 -42 -49 l-27 -37 32
10 c42 11 43 8 7 -16 -16 -11 -29 -25 -29 -30 0 -19 23 -35 48 -35 17 0 23 -4
18 -15 -7 -20 18 -20 34 0 18 21 29 19 23 -5 -3 -11 -9 -20 -13 -20 -13 0 -79
-95 -92 -131 -9 -27 -8 -34 6 -44 10 -8 19 -33 23 -66 l6 -54 14 60 c20 93 35
146 40 141 3 -2 -5 -41 -17 -86 -11 -46 -19 -95 -16 -111 5 -35 -4 -37 -31 -7
-34 38 -42 62 -63 185 -14 81 -25 120 -36 126 -12 7 -14 18 -10 42 8 38 -1 65
-20 65 -8 0 -23 9 -35 21 -15 15 -24 18 -34 9 -10 -8 -14 -8 -18 2 -2 7 -8 10
-12 6 -5 -5 -3 -19 3 -33 7 -14 12 -35 12 -45 0 -11 5 -20 10 -20 6 0 10 -16
10 -35 0 -44 -14 -45 -30 -2 -29 79 -43 103 -66 120 -33 25 -42 15 -16 -18 11
-14 24 -39 27 -55 4 -17 10 -30 14 -30 10 0 64 -110 57 -117 -3 -3 0 -15 6
-27 15 -26 18 -57 5 -49 -5 3 -7 0 -5 -8 4 -13 -47 -68 -63 -69 -14 0 -17 -29
-5 -52 7 -14 21 -45 31 -71 l17 -46 65 0 c36 0 68 -2 71 -5 3 -3 -20 -6 -51
-6 -36 0 -57 -4 -57 -11 0 -9 22 -10 78 -5 42 3 129 8 192 11 147 7 200 14
200 25 0 5 -19 11 -42 13 l-43 4 48 1 c36 2 47 -2 47 -13 0 -8 5 -15 10 -15 6
0 10 7 10 15 0 8 6 16 13 16 6 1 19 2 27 3 41 4 57 -29 65 -129 6 -64 120
-393 133 -381 4 5 92 -147 92 -159 0 -2 -7 -2 -16 -1 -20 3 -35 27 -29 46 2 8
0 22 -5 30 -9 13 -10 13 -10 0 -2 -27 -77 132 -123 260 -40 110 -59 174 -81
271 -6 27 -41 45 -52 28 -3 -6 0 -32 6 -60 15 -63 7 -74 -13 -17 -13 37 -16
39 -16 16 -1 -18 -6 -28 -16 -28 -8 0 -15 5 -15 11 0 6 -7 4 -15 -5 -21 -21
-19 -27 7 -21 34 8 43 -3 61 -79 19 -77 17 -101 -2 -34 -24 84 -32 98 -58 98
-13 0 -26 -6 -28 -12 -4 -9 -27 -12 -83 -10 -89 4 -371 -13 -380 -23 -4 -3 -2
-9 4 -13 14 -9 44 -67 44 -85 0 -8 -7 -17 -14 -20 -11 -4 -13 -1 -10 11 5 15
4 15 -6 -1 -9 -14 -7 -30 9 -73 12 -30 16 -52 10 -49 -7 5 -8 -7 -4 -39 8 -53
2 -56 -39 -21 -37 32 -46 24 -18 -15 19 -25 20 -28 5 -23 -10 4 -31 17 -46 30
-16 13 -34 23 -40 23 -7 0 -24 7 -40 14 -41 22 -32 10 16 -20 23 -15 44 -30
47 -33 3 -3 21 -15 40 -25 42 -24 90 -66 90 -79 0 -5 -7 -4 -15 3 -42 35 -20
-25 25 -67 l25 -24 -22 -15 -23 -16 23 -24 c12 -13 27 -24 34 -24 14 0 27 -35
19 -49 -4 -5 0 -11 6 -14 8 -3 -19 -36 -65 -83 -43 -43 -76 -83 -73 -89 11
-30 79 -127 92 -132 8 -3 21 3 29 13 12 17 11 24 -12 63 l-25 43 56 57 56 56
-20 -42 c-11 -23 -30 -49 -42 -57 l-22 -15 20 -41 19 -40 100 0 c378 -3 507 4
498 25 -3 9 12 16 49 22 l53 9 40 -41 c22 -23 58 -57 80 -76 l40 -34 -34 43
c-19 24 -40 46 -47 49 -14 5 -15 43 -1 43 5 0 15 -7 23 -15 9 -8 20 -15 25
-15 6 0 3 7 -5 16 -9 8 -13 20 -10 26 4 7 9 7 13 -1 4 -6 22 -13 41 -15 19 -3
43 -8 53 -11 17 -7 17 -8 0 -20 -15 -11 -11 -13 25 -13 23 0 42 2 42 6 0 4
-34 29 -75 56 -41 27 -72 53 -68 59 3 6 1 7 -4 4 -10 -6 -30 14 -102 99 -13
16 -31 40 -40 54 -15 24 -15 24 2 11 21 -17 22 -8 1 27 l-16 27 19 -25 c126
-170 241 -263 373 -301 25 -7 50 -17 55 -22 6 -6 3 -7 -10 -4 -11 3 -36 8 -55
11 l-35 6 42 -21 c23 -11 42 -24 41 -27 0 -4 0 -14 1 -22 1 -12 4 -12 12 3 10
17 44 22 73 11 14 -5 16 -30 16 -175 0 -154 -2 -172 -19 -190 -11 -12 -24 -18
-30 -14 -7 4 -11 -4 -11 -20 0 -15 7 -28 18 -32 9 -3 25 -13 34 -21 16 -13 17
-4 18 134 1 82 5 187 8 234 l7 84 35 8 c19 4 64 12 100 17 36 6 66 15 68 21 2
5 20 10 40 10 19 0 64 5 98 11 54 9 66 9 79 -4 25 -26 18 -30 -45 -24 -35 3
-58 1 -54 -4 3 -5 45 -9 95 -9 74 0 89 -3 89 -16 0 -8 6 -22 12 -29 7 -8 19
-22 27 -31 14 -16 15 -16 21 2 4 11 1 24 -7 32 -21 21 -14 22 52 6 34 -8 77
-11 99 -8 24 4 36 2 33 -3 -10 -16 -110 -25 -119 -10 -6 9 -8 9 -8 0 0 -7 -7
-13 -16 -13 -10 0 -14 -6 -11 -14 3 -8 9 -43 12 -78 9 -97 13 -108 36 -108 11
0 22 7 25 15 4 8 12 15 20 15 8 0 14 5 14 10 0 23 18 8 23 -20 6 -26 9 -29 29
-21 34 12 36 49 4 57 -15 3 -26 13 -26 23 0 9 -7 26 -15 38 -14 20 -14 23 6
34 12 6 19 7 15 1 -3 -6 0 -13 6 -15 10 -4 10 -6 1 -6 -7 -1 -13 -8 -13 -16 0
-16 12 -18 48 -9 27 8 28 21 2 29 -31 10 -24 21 15 22 34 1 47 -10 23 -20 -10
-4 -9 -8 2 -17 15 -11 103 -6 124 7 13 9 -31 24 -49 17 -8 -4 -15 -1 -15 6 0
9 13 11 49 6 31 -4 52 -3 56 4 7 11 34 7 73 -13 18 -8 28 -8 42 1 23 14 80 16
80 3 0 -5 14 -2 32 6 28 15 32 15 43 -1 7 -9 22 -16 34 -16 12 0 20 -4 17 -9
-13 -21 32 -37 134 -46 35 -4 70 -11 77 -17 10 -8 13 -6 13 6 0 19 27 15 67
-10 28 -18 42 -18 62 0 17 16 86 8 86 -9 0 -6 13 -9 29 -7 19 2 37 -5 53 -20
30 -28 109 -50 122 -34 5 6 16 26 25 44 l17 33 -28 -7 c-15 -4 -29 -11 -31
-16 -5 -11 -32 -10 -32 2 0 6 4 10 9 10 5 0 12 9 16 19 5 18 40 38 57 33 4 -1
12 6 17 16 8 16 1 17 -80 17 -77 0 -89 -2 -89 -17 0 -28 -22 -33 -38 -10 -11
16 -25 22 -53 22 -43 0 -91 18 -83 31 9 15 34 10 34 -6 0 -8 4 -15 10 -15 5 0
7 6 4 14 -6 14 23 26 67 26 14 0 29 3 32 6 4 4 43 6 87 5 66 -2 80 0 80 13 0
8 -10 22 -21 30 -21 14 -20 15 17 18 30 2 39 7 38 21 -2 20 12 23 19 5 4 -10
8 -10 15 1 5 7 14 11 19 8 5 -3 15 -2 23 4 11 6 8 9 -12 9 -15 0 -30 5 -33 10
-4 6 7 10 25 10 43 0 29 16 -20 24 -45 7 -61 29 -38 52 11 12 20 13 39 5 13
-6 69 -17 124 -25 55 -8 172 -27 260 -41 136 -22 181 -25 295 -20 74 3 216 7
315 10 99 4 223 10 275 15 52 5 101 10 108 10 7 0 10 5 7 10 -3 6 1 10 9 10 8
0 23 13 33 30 12 20 23 28 34 25 10 -3 20 -1 24 5 4 6 -5 10 -23 10 -16 0 -35
6 -41 14 -17 20 15 26 141 26 105 0 137 9 100 29 -13 7 -29 46 -52 129 -33
119 -33 120 -59 112 -14 -4 -60 -8 -101 -8 -570 -11 -1258 -29 -1280 -34 -13
-3 -77 98 -68 107 5 5 1005 19 1381 20 l318 0 35 -100 c19 -55 42 -122 51
-150 30 -89 30 -89 135 -86 51 1 104 5 118 8 22 6 23 7 5 14 -11 4 -42 8 -68
8 -47 1 -49 2 -65 41 -9 22 -23 40 -29 40 -7 0 -13 10 -13 23 0 13 -6 29 -12
36 -10 11 -10 14 0 18 6 3 12 10 12 16 0 21 66 66 111 76 24 6 168 12 319 15
151 3 285 7 297 10 30 6 35 -32 32 -219 -1 -83 1 -156 5 -163 4 -6 21 -16 39
-20 24 -7 31 -14 30 -29 -2 -14 5 -23 20 -27 39 -10 67 -7 67 9 0 16 10 17 50
6 15 -4 25 -14 25 -25 0 -12 13 -22 40 -32 22 -7 42 -14 44 -14 2 0 0 12 -3
26 -8 31 -28 33 199 -21 83 -20 174 -38 203 -41 30 -3 90 -16 135 -29 45 -12
101 -26 125 -30 23 -4 42 -10 42 -14 0 -11 141 -41 190 -41 21 0 42 -4 45 -10
3 -5 19 -10 36 -10 16 0 29 -4 29 -10 0 -5 28 -12 61 -16 57 -6 60 -8 38 -20
l-24 -12 30 -7 c17 -4 46 -11 66 -16 20 -5 49 -11 65 -13 16 -3 49 -10 74 -16
25 -6 92 -23 150 -36 58 -14 128 -34 155 -44 43 -16 72 -18 205 -15 250 6 267
8 266 25 -1 10 10 16 34 18 53 4 80 11 80 22 0 6 -8 10 -17 10 -18 0 -46 44
-36 54 3 3 33 9 67 13 52 6 57 8 31 14 -49 11 67 10 163 -1 45 -6 118 -14 161
-20 44 -5 125 -10 179 -11 111 -2 234 -18 420 -55 118 -23 251 -32 266 -17 9
10 96 10 96 1 0 -5 14 -8 30 -8 17 0 30 5 30 11 0 7 7 8 18 4 9 -4 25 -8 35
-10 9 -2 23 -7 30 -12 6 -4 158 -8 337 -8 179 -1 360 -5 403 -9 l77 -9 0 32
c0 21 -5 31 -15 31 -8 0 -15 7 -15 15 0 9 7 18 15 21 13 5 15 156 15 1269 l0
1263 -40 32 c-22 17 -40 36 -40 40 0 21 -100 149 -181 232 -61 62 -89 98 -89
114 0 29 20 74 33 74 5 0 6 7 3 16 -3 9 -1 34 5 56 23 86 44 233 58 406 8 89
7 124 -5 168 -8 30 -14 65 -14 77 0 12 -11 45 -25 72 -13 28 -25 64 -25 82 0
18 -5 45 -12 60 -16 36 -95 141 -127 169 -14 12 -30 37 -36 55 -7 19 -23 39
-37 47 -17 8 -28 23 -32 46 -7 37 -29 62 -46 51 -11 -7 -94 9 -137 26 -14 5
-25 4 -29 -2 -7 -12 -55 -3 -100 19 -36 17 -74 11 -100 -16 -12 -11 -35 -17
-68 -18 -61 -2 -155 -13 -176 -22 -8 -3 -31 -6 -49 -7 -31 0 -36 -4 -41 -30
-4 -16 -14 -45 -24 -62 -9 -18 -14 -33 -12 -33 3 0 -6 -21 -19 -46 -14 -26
-22 -50 -20 -55 12 -18 -8 -57 -31 -63 -35 -9 -30 -27 6 -19 46 9 37 -14 -10
-27 -22 -6 -40 -15 -40 -19 0 -5 22 -15 49 -22 71 -18 90 -36 84 -80 -4 -31
-9 -38 -35 -43 -18 -4 -27 -10 -22 -17 4 -7 2 -10 -5 -8 -7 3 -12 7 -11 9 7
35 14 50 24 50 6 0 -2 7 -18 15 -15 8 -34 15 -41 15 -14 0 -47 -44 -56 -75 -4
-15 -12 -19 -34 -17 -25 3 -27 1 -15 -13 7 -9 20 -13 29 -10 9 3 1 -7 -16 -24
-18 -16 -33 -34 -33 -39 0 -5 -13 -28 -29 -53 -16 -24 -35 -66 -42 -92 -10
-42 -10 -50 7 -68 10 -11 26 -18 36 -16 21 6 24 -7 5 -25 -20 -18 -9 -48 17
-48 20 -1 20 -1 2 -15 -15 -12 -17 -17 -7 -29 7 -8 10 -20 6 -26 -3 -5 1 -10
9 -10 23 0 19 -31 -4 -37 -11 -3 -20 -12 -20 -20 0 -23 33 -73 47 -73 7 0 13
-7 13 -16 0 -9 -7 -14 -17 -12 -11 2 -25 -7 -36 -25 -18 -29 -18 -30 11 -86
23 -43 36 -57 56 -59 22 -3 26 -8 26 -33 0 -34 16 -69 31 -69 6 0 6 7 -1 19
-5 11 -10 28 -10 38 1 10 12 -3 26 -30 24 -46 24 -50 13 -140 -11 -96 -47
-209 -79 -249 -10 -13 -41 -67 -70 -121 -51 -96 -79 -133 -65 -86 4 13 7 26 7
29 1 76 -25 45 -97 -116 -31 -68 -35 -86 -26 -103 17 -32 25 -26 50 34 13 30
27 55 32 55 12 0 12 0 -10 -46 -32 -67 -111 -309 -111 -339 0 -13 29 -3 45 15
18 20 41 28 31 11 -3 -5 -3 -23 0 -40 5 -22 12 -31 26 -31 15 0 18 5 13 20 -8
24 12 100 26 100 6 0 9 -7 6 -14 -4 -10 -1 -13 9 -9 7 3 14 11 14 17 0 7 9 12
21 12 16 -1 25 11 41 52 18 49 79 125 118 148 19 11 65 114 121 267 53 148
118 279 133 270 6 -4 16 -8 21 -9 28 -3 76 -18 80 -25 3 -4 -21 -20 -52 -35
-35 -17 -51 -29 -42 -31 20 -5 32 -40 17 -49 -6 -4 -5 -10 3 -16 12 -8 12 -10
0 -15 -24 -10 -70 -62 -76 -86 -2 -12 -6 -38 -8 -57 l-3 -35 -17 35 -16 35 -1
-32 c0 -18 -5 -33 -11 -33 -6 0 -9 -9 -6 -20 3 -11 1 -18 -4 -14 -5 3 -9 -2
-9 -10 0 -8 -7 -21 -15 -29 -8 -9 -22 -36 -30 -61 -9 -25 -36 -89 -61 -142
-70 -151 -70 -187 -1 -122 44 42 73 90 121 203 21 50 46 99 55 110 10 11 26
34 36 50 26 42 116 145 127 145 5 0 7 -24 3 -54 -4 -41 -2 -58 10 -69 9 -10
11 -18 5 -22 -7 -4 -7 -13 0 -26 9 -16 2 -35 -40 -105 -40 -65 -50 -91 -46
-110 13 -50 38 -21 100 116 67 147 115 234 124 225 5 -5 -24 -69 -95 -207 -13
-27 -22 -48 -20 -48 3 0 -10 -35 -28 -78 -41 -97 -68 -197 -90 -327 -9 -55
-20 -116 -25 -135 -6 -20 -12 -85 -15 -145 -3 -60 -8 -117 -11 -127 -9 -31 10
-20 90 51 42 38 119 101 170 140 67 50 98 81 110 108 42 93 79 145 100 137 13
-5 78 81 113 151 14 27 33 56 42 62 15 12 15 13 0 7 -30 -10 -31 36 -2 91 35
69 53 93 53 75 0 -11 2 -12 8 -3 4 7 17 10 30 6 25 -6 30 -23 7 -23 -9 0 -19
-8 -22 -17 -4 -10 -20 -37 -36 -61 -30 -44 -33 -66 -5 -34 54 60 103 103 106
93 4 -11 -172 -283 -211 -326 -21 -24 -48 -75 -39 -74 15 1 144 87 209 138 87
68 153 152 209 262 63 126 91 137 35 14 -39 -85 -105 -176 -199 -273 -137
-141 -234 -254 -279 -323 -24 -38 -66 -97 -94 -131 -51 -64 -51 -78 1 -59 24
8 30 7 30 -4 0 -8 -11 -22 -25 -31 -21 -14 -25 -24 -25 -64 0 -44 -3 -50 -30
-63 -16 -9 -62 -18 -103 -22 -60 -6 -75 -4 -86 9 -18 22 -38 20 -65 -7 -12
-12 -33 -27 -47 -34 -13 -6 -19 -12 -13 -12 6 -1 9 -12 6 -26 -3 -18 -11 -25
-28 -25 -14 0 -49 -9 -79 -19 -30 -11 -55 -17 -55 -14 0 3 -6 1 -13 -5 -7 -6
-35 -12 -62 -14 -38 -2 -49 0 -47 11 2 11 -10 12 -65 6 -37 -4 -75 -13 -84
-21 -8 -8 -23 -14 -31 -14 -9 0 -21 -6 -27 -14 -25 -29 -93 -36 -267 -26 -93
6 -177 12 -186 14 -12 3 -18 -2 -18 -13 0 -23 -31 -40 -55 -30 -11 4 -41 8
-67 8 -28 1 -48 6 -50 13 -6 16 -137 14 -196 -2 -22 -5 -53 -7 -71 -4 -41 9
-59 -8 -67 -63 -4 -25 -10 -40 -14 -33 -9 14 8 120 22 137 7 9 38 13 98 13 47
0 89 3 92 6 10 10 -42 53 -57 48 -8 -3 -27 3 -42 14 -73 52 -160 29 -155 -42
2 -32 0 -35 -31 -41 -22 -4 -54 1 -95 14 -34 12 -69 21 -78 21 -18 0 -84 -64
-84 -83 -1 -17 -29 35 -30 54 0 10 -12 19 -31 23 -47 9 -91 7 -84 -4 16 -26
-9 -60 -61 -85 -30 -14 -54 -30 -54 -36 0 -6 -4 -7 -10 -4 -5 3 -10 15 -10 26
0 10 5 19 10 19 16 0 12 20 -5 26 -8 4 -23 3 -32 -1 -17 -7 -16 -8 2 -15 18
-8 17 -9 -6 -9 -14 -1 -29 2 -32 6 -4 3 -18 8 -32 9 -19 2 -25 -2 -25 -17 0
-24 -20 -25 -21 -1 -1 9 -1 21 0 26 1 5 -7 6 -19 3 -14 -3 -20 0 -20 10 0 11
-8 14 -30 11 -22 -3 -31 0 -36 14 -3 10 -12 18 -19 18 -9 0 -12 6 -9 15 4 8 1
15 -5 15 -6 0 -11 -9 -11 -20 0 -11 7 -20 15 -20 19 0 19 -7 1 -26 -20 -19
-54 -18 -59 3 -4 14 -5 13 -6 -4 0 -12 5 -24 12 -26 7 -4 6 -6 -4 -6 -10 -1
-19 10 -23 24 -4 15 -11 23 -17 19 -6 -3 -9 -15 -6 -25 3 -11 1 -19 -4 -19 -5
0 -9 14 -9 31 0 17 -4 28 -10 24 -5 -3 -10 1 -10 9 0 10 6 13 17 9 13 -5 15
-2 10 13 -6 17 -6 17 6 3 11 -14 14 -15 26 -1 12 13 16 12 32 -9 10 -13 19
-19 18 -14 0 24 -28 45 -61 45 -27 0 -37 5 -46 25 -6 14 -19 25 -27 25 -9 0
-13 -4 -10 -10 3 -5 -1 -10 -9 -10 -23 0 -31 4 -29 13 2 4 -2 7 -7 7 -6 0 -10
14 -10 30 0 17 -9 40 -20 52 l-20 21 11 -34 c12 -38 21 -234 13 -267 -5 -18
-12 -20 -47 -16 -23 2 -118 11 -211 19 -94 9 -171 17 -173 18 -6 6 31 96 63
155 19 34 34 68 33 75 -4 31 4 49 42 97 22 28 52 55 66 61 74 28 442 13 619
-25 88 -19 283 -44 444 -57 117 -9 174 -15 360 -37 62 -8 162 -9 241 -3 9 0
20 8 23 17 3 8 2 13 -3 10 -13 -8 -34 21 -25 35 4 8 3 9 -5 5 -6 -4 -14 0 -17
8 -3 9 -13 16 -21 16 -9 0 -13 6 -9 15 3 9 0 15 -9 15 -12 0 -19 17 -14 33 0
1 -16 29 -36 62 -23 38 -35 68 -32 83 3 16 0 22 -8 18 -19 -7 -28 24 -13 42
12 13 11 14 -8 2 -20 -12 -24 -11 -47 16 -21 23 -28 27 -38 16 -7 -6 -24 -12
-38 -12 -41 0 -17 -10 28 -12 23 -1 44 -5 46 -8 3 -4 -147 -5 -333 -1 -671 12
-1112 5 -1191 -18 -19 -6 -37 -8 -42 -6 -10 7 -60 -16 -79 -35 -14 -14 -14
-14 -5 0 9 13 8 13 -7 1 -10 -7 -18 -20 -18 -28 0 -8 -5 -11 -10 -8 -6 4 -9 3
-8 -2 1 -4 -5 -19 -14 -33 -28 -41 -36 -106 -37 -299 l-2 -183 31 4 c16 3 30
1 30 -3 0 -4 8 -10 18 -13 9 -2 -4 -2 -30 1 -57 6 -184 -13 -216 -34 -13 -8
-26 -13 -28 -11 -8 9 16 546 26 574 14 37 55 79 91 94 l29 12 -49 72 c-37 54
-53 89 -65 145 -12 52 -14 77 -6 85 12 12 13 56 1 74 -7 11 -11 11 -22 -1 -12
-12 -14 -8 -15 27 -1 23 -17 91 -37 152 -54 168 -54 175 -12 201 39 25 42 23
19 -12 -9 -13 -13 -29 -9 -35 13 -20 36 27 41 82 2 29 2 48 -2 41 -3 -7 -12
-9 -20 -6 -7 3 -11 10 -8 15 4 6 -4 4 -17 -2 -23 -13 -23 -13 -8 11 9 13 19
36 23 51 6 25 8 26 31 16 20 -9 23 -16 18 -36 -4 -17 -2 -23 6 -18 6 4 11 14
11 21 0 18 51 10 92 -13 32 -18 34 -28 48 -181 13 -135 19 -164 70 -336 44
-146 71 -260 73 -303 0 -9 8 -11 21 -8 12 3 44 6 71 6 l50 0 -1 69 c-1 38 -4
73 -8 79 -11 18 -57 265 -69 373 l-12 107 26 32 c15 17 35 46 44 64 18 32 18
34 -4 77 -12 24 -42 67 -66 94 l-45 50 0 -32 c0 -35 25 -155 40 -190 13 -32
-9 -46 -37 -23 -20 16 -103 179 -103 203 0 5 -17 37 -37 71 -21 33 -46 78 -56
98 -21 42 -42 41 -32 -1 6 -26 6 -26 -9 -5 -31 43 -59 139 -60 201 -1 34 2 64
6 68 14 14 100 -39 166 -102 37 -36 57 -60 46 -54 -12 6 -25 7 -29 3 -3 -4 -6
-2 -5 3 4 20 0 35 -11 35 -8 0 -8 -5 1 -15 7 -8 9 -15 6 -15 -4 0 -2 -9 4 -21
8 -15 8 -24 0 -34 -12 -15 -4 -75 12 -90 8 -7 9 -5 5 8 -5 12 -3 16 5 11 7 -5
9 -2 6 8 -4 8 -3 30 2 49 7 29 8 30 10 9 1 -23 2 -23 10 -5 6 13 9 15 9 5 0
-8 -6 -28 -13 -45 -14 -35 -3 -81 27 -103 9 -7 15 -17 12 -22 -3 -4 3 -7 12
-6 14 2 63 82 85 140 2 5 24 -3 49 -17 55 -33 68 -33 104 -5 26 20 27 20 22 2
-3 -10 -9 -35 -12 -55 -6 -34 -4 -38 26 -53 17 -9 37 -16 44 -16 7 0 22 -9 35
-20 20 -17 21 -21 7 -35 -18 -18 -12 -45 10 -45 9 0 31 -13 50 -30 18 -16 38
-30 43 -30 5 0 7 -7 3 -16 -5 -14 -1 -15 25 -10 25 6 31 4 37 -13 3 -12 12
-21 19 -21 7 0 22 -9 33 -19 12 -11 24 -17 28 -13 9 8 7 2 -24 -108 -12 -41
-35 -122 -50 -180 l-29 -105 -3 200 c-2 110 -3 210 -3 223 0 14 -5 22 -13 20
-11 -2 -15 -77 -18 -376 -4 -349 -3 -373 13 -370 14 3 18 19 23 88 3 47 18
130 33 185 14 55 27 102 27 105 1 3 5 -8 9 -25 7 -26 8 -24 9 20 1 28 10 91
21 140 l20 90 -5 -104 c-2 -57 -9 -138 -14 -180 -6 -42 -15 -117 -21 -167 -5
-51 -13 -106 -16 -123 l-7 -32 78 3 79 3 37 185 c50 251 76 344 103 369 l23
21 83 -42 c50 -26 105 -64 137 -96 l53 -53 -6 41 c-5 33 -2 47 20 80 14 22 31
40 36 40 14 0 13 -5 -12 -53 -27 -53 -29 -118 -4 -182 16 -40 21 -45 26 -30 6
18 8 17 23 -10 21 -38 92 -114 135 -144 19 -13 53 -29 75 -37 23 -7 34 -13 25
-13 -10 -1 -18 -6 -18 -12 0 -5 -5 -7 -10 -4 -6 4 -7 12 -4 18 5 8 3 8 -7 0
-15 -15 -33 -17 -24 -4 3 6 -7 9 -21 8 -15 -1 -29 4 -31 11 -3 8 1 10 14 5 17
-6 17 -6 1 10 -9 9 -19 17 -21 17 -10 0 -29 -59 -22 -69 4 -7 -5 -11 -22 -12
-15 0 -21 -3 -13 -6 43 -14 40 -18 -20 -23 -61 -6 -59 -7 35 -8 97 -2 100 -1
130 27 42 40 95 53 154 38 25 -7 54 -20 64 -30 10 -10 22 -16 25 -12 4 4 -3
14 -14 22 -15 9 -20 21 -17 34 5 18 6 19 18 2 12 -17 14 -16 25 12 6 17 13 37
16 45 18 48 34 128 34 172 0 45 -4 54 -37 85 -21 19 -60 47 -88 63 -68 40 -51
37 44 -6 48 -22 83 -44 88 -57 9 -18 11 -12 17 38 12 115 -26 450 -58 514 -18
34 -50 41 -103 20 -16 -6 -82 -11 -153 -10 -120 1 -125 2 -152 28 -17 16 -33
23 -44 19 -9 -4 -28 1 -42 10 -33 22 -61 14 -159 -40 -65 -37 -90 -46 -129
-46 -26 0 -74 -7 -106 -16 -32 -9 -60 -15 -62 -13 -2 2 2 42 8 89 12 91 6 82
86 120 16 8 17 25 7 81 -7 33 -3 42 38 95 24 33 64 81 88 109 44 49 44 49 56
26 7 -12 15 -47 18 -77 3 -30 10 -54 15 -54 5 0 32 23 60 52 46 48 49 49 33
18 -10 -19 -21 -66 -25 -104 -7 -63 -6 -74 13 -101 25 -36 36 -45 106 -90 55
-35 71 -37 71 -7 1 11 6 8 16 -11 14 -26 34 -29 34 -4 0 7 16 53 35 102 33 87
34 88 28 39 -6 -58 19 -120 61 -147 31 -21 36 -21 36 -2 0 8 5 14 12 12 6 -1
18 12 26 28 8 17 18 35 21 41 3 6 26 37 50 69 125 165 211 481 199 728 -6 114
-22 162 -67 206 -26 26 -36 29 -68 24 -44 -6 -134 -26 -212 -48 -83 -23 -225
-43 -346 -50 -125 -6 -152 -10 -180 -20 -16 -6 -18 -5 -8 5 14 16 6 40 -21 62
-26 22 -40 22 -60 2 -17 -17 -21 -8 -7 15 6 9 6 22 0 32 -6 12 10 130 48 363
51 317 58 347 78 359 13 6 38 20 56 31 39 21 79 56 79 68 0 5 -9 4 -19 -2 -36
-19 -46 -10 -16 15 23 19 32 22 44 12 12 -10 14 -9 8 6 -3 9 -2 17 3 17 6 0
10 16 10 35 0 19 4 43 10 53 5 9 16 40 24 69 14 49 14 52 -9 83 -12 17 -32 61
-44 98 -29 88 -17 133 45 171 23 14 65 45 93 68 35 28 68 45 105 54 54 12 54
12 96 88 24 42 50 87 59 101 9 14 27 63 41 109 13 47 33 105 45 130 12 25 30
89 39 141 10 52 31 134 48 182 27 79 29 92 20 140 -6 29 -22 112 -36 183 -14
72 -26 131 -26 133 0 1 -133 2 -295 2 -335 0 -308 9 -279 -91 21 -69 76 -179
112 -221 53 -64 59 -74 22 -45 -73 58 -175 120 -266 163 -53 24 -100 44 -105
44 -5 0 -42 -48 -80 -107 -59 -90 -149 -264 -294 -568 -47 -98 -67 -177 -73
-283 -4 -94 -3 -108 22 -170 31 -78 93 -164 205 -282 44 -47 80 -92 81 -101 0
-9 9 -24 20 -34 12 -10 29 -38 39 -60 19 -43 76 -95 103 -95 20 0 37 -61 38
-140 1 -56 -20 -194 -122 -805 -6 -38 -13 -62 -15 -53 -3 9 1 43 6 74 19 102
18 104 -39 104 -37 0 -61 -7 -91 -25 l-40 -26 17 -28 c13 -22 15 -40 10 -76
l-8 -48 -166 6 c-103 4 -161 2 -152 -3 8 -6 23 -10 33 -10 9 0 17 -4 17 -9 0
-5 8 -7 18 -4 10 2 24 -3 31 -11 15 -18 20 -18 -154 -20 -100 -1 -100 -1 -99
-26 1 -14 -4 -28 -10 -32 -7 -5 -6 -8 3 -8 8 0 44 -19 81 -42 l68 -41 -23 -36
c-35 -54 -41 -108 -16 -135 11 -12 29 -50 40 -85 11 -35 35 -89 54 -120 19
-31 38 -69 41 -86 6 -28 4 -31 -34 -43 -22 -6 -65 -12 -95 -12 -47 0 -65 6
-120 40 -36 21 -86 56 -110 76 -41 33 -45 35 -45 15 l0 -21 -40 20 c-22 11
-40 26 -40 34 0 7 -9 21 -20 31 -11 10 -20 29 -20 42 0 26 -38 139 -66 199
-28 59 -148 179 -230 230 l-74 46 45 56 c24 32 89 102 145 156 55 55 100 103
100 108 0 5 5 6 10 3 18 -11 11 7 -16 43 -26 33 -29 34 -78 29 -28 -2 -43 -2
-34 0 34 9 -13 40 -102 67 -116 36 -120 39 -93 68 11 13 44 61 71 108 28 47
80 116 116 153 38 39 57 66 46 62 -35 -11 -22 11 35 60 30 25 67 67 81 91 23
40 26 52 21 112 -7 88 -30 187 -49 209 -8 10 -25 40 -38 66 -20 44 -25 48 -48
42 -14 -3 -38 -15 -54 -26 -41 -30 -236 -121 -249 -117 -6 2 22 21 63 42 84
43 196 129 217 168 14 24 12 31 -34 123 -58 117 -108 194 -167 259 l-45 50 -7
170 c-4 94 -13 212 -22 261 -17 100 -69 296 -112 425 l-29 85 -318 3 c-244 2
-321 -1 -333 -10 -12 -10 -16 -10 -19 0 -3 7 -21 12 -43 12 l-38 0 24 -77z
m112 32 c-15 -14 -33 -25 -40 -25 -15 1 42 50 57 50 5 0 -2 -11 -17 -25z m32
-25 c0 -17 -54 -64 -58 -50 -3 7 8 23 24 36 33 27 34 27 34 14z m6 -62 c-2
-25 -6 -28 -37 -28 -18 0 -19 2 -9 15 7 8 19 15 26 15 8 0 14 5 14 10 0 6 2
10 4 10 3 0 4 -10 2 -22z m11 -74 c-16 -14 -31 -24 -34 -21 -8 9 7 28 31 37
33 13 33 12 3 -16z m2975 -18 c2 -12 -3 -20 -14 -21 -14 -3 -15 1 -6 21 13 27
15 27 20 0z m-2942 -66 c0 -5 -5 -10 -11 -10 -5 0 -7 5 -4 10 3 6 8 10 11 10
2 0 4 -4 4 -10z m23 -52 c-18 -18 -36 -28 -40 -24 -4 4 1 14 12 21 11 8 25 19
30 24 6 6 14 10 20 11 5 0 -5 -14 -22 -32z m17 -43 c-24 -26 -40 -32 -40 -15
0 8 45 38 59 40 3 0 -6 -11 -19 -25z m5 -45 c-10 -11 -21 -17 -24 -14 -3 3 3
12 13 20 28 20 32 17 11 -6z m20 -35 c-32 -27 -45 -31 -45 -15 0 6 5 10 11 10
6 0 17 7 25 15 9 8 21 15 27 15 7 -1 -1 -12 -18 -25z m10 -50 c-31 -26 -45
-31 -45 -17 0 9 51 42 65 41 6 0 -3 -11 -20 -24z m4 -54 c-13 -11 -26 -17 -29
-14 -6 6 30 33 43 33 5 0 -1 -9 -14 -19z m34 -28 c-3 -7 -11 -13 -18 -13 -7 0
-15 -6 -18 -12 -2 -7 -8 -10 -12 -6 -10 10 21 45 39 45 8 0 12 -6 9 -14z m-8
-49 c-43 -34 -56 -29 -16 6 19 17 37 28 40 24 3 -3 -7 -17 -24 -30z m26 -35
c-19 -16 -32 -32 -28 -36 4 -3 13 -1 19 5 7 7 19 12 27 12 11 0 8 -7 -11 -25
-31 -29 -38 -31 -38 -11 0 8 -5 16 -12 18 -19 7 -1 36 34 58 45 27 50 14 9
-21z m64 -54 c-29 -23 -29 -24 -5 -18 22 6 21 3 -12 -26 -21 -18 -42 -30 -47
-27 -5 3 -11 0 -14 -6 -3 -9 -7 -7 -12 5 -9 22 26 63 70 83 46 20 53 16 20
-11z m61 -50 c-11 -9 -14 -15 -7 -15 13 0 -20 -29 -78 -70 -27 -19 -35 -20
-42 -9 -13 21 -11 26 14 49 30 29 87 59 112 59 20 0 20 0 1 -14z m24 -61 c0
-9 -5 -12 -12 -8 -8 5 -9 2 -5 -10 4 -9 3 -14 -2 -11 -5 3 -27 -11 -48 -30
-39 -36 -57 -43 -68 -24 -10 16 22 45 78 74 60 30 57 29 57 9z m2510 3 c0 -2
-10 -12 -22 -23 l-23 -19 19 23 c18 21 26 27 26 19z m-2504 -69 c-2 -15 -22
-34 -57 -55 -63 -38 -69 -39 -69 -14 0 18 21 36 85 73 40 23 45 22 41 -4z m25
-57 c-6 -10 -24 -24 -41 -31 -36 -15 -40 -35 -5 -26 14 3 37 9 53 12 l27 6
-29 -26 c-17 -15 -36 -24 -44 -21 -9 3 -12 0 -9 -9 4 -10 1 -13 -9 -9 -7 3
-14 0 -14 -6 0 -6 10 -11 23 -11 21 0 21 -1 -7 -25 -31 -26 -38 -29 -49 -18
-4 3 1 12 11 19 9 7 14 16 10 20 -4 4 -15 1 -24 -7 -14 -12 -16 -10 -14 16 2
17 -1 38 -5 48 -11 25 9 43 75 67 30 10 56 19 58 20 1 0 -2 -8 -7 -19z m53
-171 c-9 -16 -21 -31 -27 -32 -7 0 -17 -2 -23 -2 -11 -1 -44 -31 -44 -40 0 -2
15 0 32 5 51 14 60 12 48 -11 -6 -11 -8 -20 -5 -20 4 0 3 -5 -1 -12 -4 -7 -9
-25 -11 -41 -2 -15 -7 -36 -12 -46 -6 -10 -7 -28 -4 -40 4 -15 -2 -29 -21 -48
-26 -25 -49 -26 -28 -1 7 9 6 25 -5 53 -33 90 -38 115 -25 136 11 18 11 21 -5
25 -28 8 -25 40 5 60 24 15 99 41 129 43 8 1 7 -8 -3 -29z m126 -185 c-7 -8
-18 -15 -24 -15 -6 0 -2 7 8 15 25 19 32 19 16 0z m-70 -33 c0 -10 -50 -35
-57 -28 -2 2 5 7 16 11 12 3 21 11 21 16 0 5 5 9 10 9 6 0 10 -4 10 -8z
m-4693 -141 c22 -6 33 -6 36 2 3 11 27 1 27 -12 0 -11 -58 -6 -90 8 -32 12
-15 14 27 2z m4523 -30 c0 -22 -4 -43 -10 -46 -6 -4 -10 12 -10 39 0 25 5 46
10 46 6 0 10 -18 10 -39z m-214 -17 c19 -15 19 -15 -1 -6 -11 5 -27 12 -35 15
-13 5 -13 6 1 6 8 1 24 -6 35 -15z m-4412 -25 c-3 -6 0 -15 7 -20 9 -6 10 -9
2 -9 -15 0 -26 17 -18 30 3 6 8 10 11 10 3 0 2 -5 -2 -11z m3884 -98 c-14 -23
-38 -36 -38 -21 0 11 42 52 47 46 3 -2 -1 -13 -9 -25z m-187 -42 c27 -12 48
-23 46 -25 -2 -2 -30 8 -63 21 -32 14 -53 25 -46 25 7 0 36 -10 63 -21z m1009
-34 c13 -14 21 -25 18 -25 -2 0 -15 11 -28 25 -13 14 -21 25 -18 25 2 0 15
-11 28 -25z m-4546 -106 c31 -15 24 -32 -8 -19 -12 4 -29 4 -36 0 -11 -7 -8
-11 13 -19 16 -6 26 -15 23 -20 -4 -5 1 -17 10 -26 15 -15 15 -17 -6 -32 -13
-9 -30 -24 -38 -34 -12 -14 -18 -15 -24 -6 -5 7 -8 0 -8 -19 0 -18 10 -42 24
-58 23 -27 24 -27 54 -12 27 14 31 14 43 -1 12 -15 12 -16 -3 -10 -20 7 -35
-9 -16 -16 8 -3 6 -6 -4 -6 -20 -1 -25 -21 -6 -21 6 0 9 -3 5 -6 -13 -13 -85
57 -102 98 -41 103 -36 165 17 202 27 19 30 19 62 5z m51 -43 c17 -17 24 -60
10 -63 -5 -1 -11 10 -12 25 -1 15 -7 28 -13 30 -10 4 -14 22 -4 22 3 0 12 -6
19 -14z m-448 -38 c15 -12 16 -18 3 -38 -8 -13 -11 -12 -24 5 -8 11 -12 24 -9
28 3 5 -3 7 -12 5 -10 -2 -20 3 -23 11 -4 11 2 12 24 7 16 -4 35 -12 41 -18z
m4143 -33 c0 -5 -61 -21 -117 -30 -60 -9 -55 10 5 23 51 11 112 15 112 7z
m-4110 -19 c0 -8 -4 -18 -10 -21 -5 -3 -10 3 -10 14 0 12 5 21 10 21 6 0 10
-6 10 -14z m-93 -38 c-3 -8 -6 -5 -6 6 -1 11 2 17 5 13 3 -3 4 -12 1 -19z
m572 -5 c2 -1 -2 -9 -9 -18 -10 -12 -10 -18 0 -30 7 -9 10 -18 6 -22 -13 -13
-29 16 -31 56 -2 36 0 40 14 29 9 -7 18 -14 20 -15z m-474 -13 c3 -5 -1 -10
-9 -10 -9 0 -16 5 -16 10 0 6 4 10 9 10 6 0 13 -4 16 -10z m45 -36 c0 -8 -7
-14 -15 -14 -17 0 -18 2 -9 24 7 18 24 12 24 -10z m900 -44 c28 -29 41 -80 20
-80 -11 0 -70 84 -70 99 0 19 20 12 50 -19z m3384 4 c3 -8 2 -12 -4 -9 -6 3
-10 10 -10 16 0 14 7 11 14 -7z m-4287 -35 c-1 -19 -2 -19 -14 -3 -17 23 -16
35 1 28 8 -3 14 -15 13 -25z m39 -36 c-10 -10 -19 5 -10 18 6 11 8 11 12 0 2
-7 1 -15 -2 -18z m-271 -33 c3 -5 1 -10 -4 -10 -6 0 -11 5 -11 10 0 6 2 10 4
10 3 0 8 -4 11 -10z m261 -17 c-7 -7 -26 7 -26 19 0 6 6 6 15 -2 9 -7 13 -15
11 -17z m8644 23 c0 -2 -8 -10 -17 -17 -16 -13 -17 -12 -4 4 13 16 21 21 21
13z m-8882 -38 c17 -17 15 -33 -3 -18 -13 11 -15 8 -15 -16 0 -27 -1 -27 -15
-8 -15 19 -15 19 -10 -1 5 -18 4 -17 -6 2 -19 35 21 69 49 41z m23 -91 c-10
-9 -11 -8 -5 6 3 10 9 15 12 12 3 -3 0 -11 -7 -18z m-101 3 c0 -5 -4 -10 -10
-10 -5 0 -10 5 -10 10 0 6 5 10 10 10 6 0 10 -4 10 -10z m150 -4 c0 -22 -11
-46 -21 -46 -5 0 -9 14 -9 30 0 20 5 30 15 30 8 0 15 -6 15 -14z m-224 -35 c0
-11 -5 -17 -13 -14 -17 6 -17 20 0 26 6 3 12 6 12 6 1 1 1 -7 1 -18z m134 3
c0 -8 -5 -12 -10 -9 -6 4 -8 11 -5 16 9 14 15 11 15 -7z m130 6 c0 -5 -2 -10
-4 -10 -3 0 -8 5 -11 10 -3 6 -1 10 4 10 6 0 11 -4 11 -10z m-170 -10 c0 -5
-5 -10 -11 -10 -5 0 -7 5 -4 10 3 6 8 10 11 10 2 0 4 -4 4 -10z m5200 -62
c-10 -29 -2 -77 73 -413 120 -537 230 -1098 239 -1228 5 -63 -8 -56 -17 9 -45
311 -271 1421 -282 1387 -2 -6 0 -28 5 -51 l9 -40 -36 -6 c-52 -8 -91 -7 -91
3 0 5 16 12 35 15 19 4 37 12 41 18 5 7 -21 9 -85 6 -50 -3 -93 -2 -95 1 -2 3
-7 20 -10 38 l-7 31 63 10 63 9 -60 2 c-41 1 -55 4 -45 10 8 6 18 7 22 5 4 -3
5 1 2 9 -6 17 44 57 71 57 9 0 32 7 51 16 25 12 34 23 34 40 0 34 -14 30 -49
-13 -17 -20 -33 -35 -35 -32 -3 2 16 29 41 59 25 30 49 66 54 79 14 36 22 17
9 -21z m3720 30 c0 -23 -18 -41 -34 -35 -21 8 -20 34 2 40 29 8 32 7 32 -5z
m-3621 -108 c10 -19 21 -60 24 -90 14 -127 72 -424 76 -390 4 32 18 -87 35
-290 11 -131 2 -94 -68 295 -13 72 -36 191 -51 265 -15 74 -31 153 -35 175 -4
22 -10 54 -14 70 -9 35 3 23 33 -35z m226 10 c-22 -11 -47 -19 -55 -19 -8 0 3
8 25 19 22 11 47 19 55 19 8 0 -3 -8 -25 -19z m-80 -29 c-6 -5 -21 -12 -35
-15 l-25 -7 25 15 c28 17 50 21 35 7z m75 -123 c-27 -30 -38 -63 -54 -163 -3
-16 -3 3 0 43 4 72 20 112 54 139 29 23 29 13 0 -19z m3330 8 c0 -3 -4 -8 -10
-11 -5 -3 -10 -1 -10 4 0 6 5 11 10 11 6 0 10 -2 10 -4z m25 -38 c-1 -13 -9
-24 -18 -26 -20 -4 -21 2 -5 28 17 26 25 25 23 -2z m1054 -26 c0 -24 -1 -25
-9 -7 -12 28 -12 47 0 40 6 -3 10 -18 9 -33z m-999 -38 c0 -8 7 -14 15 -14 8
0 15 -2 15 -4 0 -11 -31 -76 -39 -80 -5 -4 -24 -37 -41 -76 -32 -69 -56 -92
-66 -66 -3 8 -1 24 5 35 8 15 7 35 -4 77 -8 32 -15 67 -15 77 0 28 44 65 82
69 40 4 48 1 48 -18z m1017 -106 c-3 -8 -6 -5 -6 6 -1 11 2 17 5 13 3 -3 4
-12 1 -19z m-4491 -73 c-6 -41 -14 -75 -18 -75 -8 0 -7 15 8 108 12 73 20 46
10 -33z m-5306 -11 c0 -8 -4 -14 -10 -14 -5 0 -10 9 -10 21 0 11 5 17 10 14 6
-3 10 -13 10 -21z m9780 -142 c-7 -45 -16 -85 -21 -88 -13 -7 -11 13 8 129 21
120 32 86 13 -41z m-9808 98 c6 0 8 -9 5 -21 -3 -12 -1 -33 4 -46 5 -14 7 -28
5 -31 -3 -3 -10 7 -15 22 -6 14 -15 26 -20 26 -14 0 -19 34 -8 60 8 21 11 22
14 8 3 -10 9 -18 15 -18z m6596 13 c-15 -2 -42 -2 -60 0 -18 2 -6 4 27 4 33 0
48 -2 33 -4z m-133 -43 c3 -5 1 -10 -4 -10 -6 0 -11 5 -11 10 0 6 2 10 4 10 3
0 8 -4 11 -10z m-5950 -48 c6 -4 10 -18 10 -32 1 -14 4 -38 8 -53 6 -21 4 -28
-4 -25 -10 3 -37 81 -39 111 0 9 12 9 25 -1z m-299 -242 c3 -8 23 -51 44 -95
20 -44 40 -92 44 -108 6 -26 5 -27 -13 -15 -11 7 -25 24 -30 38 -45 117 -91
247 -91 255 1 9 30 -39 46 -75z m9550 14 c-4 -14 -11 -22 -16 -19 -9 5 -8 13
6 53 9 25 17 -3 10 -34z m-2975 -70 c-10 -22 -17 -30 -19 -21 -4 18 15 57 27
57 5 0 1 -16 -8 -36z m-7250 -84 c-6 -30 -9 -36 -10 -19 -1 33 12 99 16 79 2
-8 -1 -35 -6 -60z m7093 -14 c-4 -37 -9 -64 -12 -62 -2 3 -1 35 3 71 4 37 9
65 11 62 3 -2 2 -34 -2 -71z m65 13 c-7 -30 -22 -117 -35 -194 -13 -77 -21
-111 -18 -75 5 65 40 279 50 313 12 39 14 7 3 -44z m2186 22 c-3 -14 -17 -48
-31 -76 l-24 -50 5 53 c7 69 19 99 40 99 13 0 15 -6 10 -26z m-8318 -28 c-3
-10 -5 -2 -5 17 0 19 2 27 5 18 2 -10 2 -26 0 -35z m8166 10 c-12 -80 -13 -80
-34 -34 -23 53 -24 50 4 60 30 12 35 7 30 -26z m-8091 -120 c32 -35 107 -222
106 -263 -1 -8 2 -44 6 -80 5 -52 4 -61 -5 -43 -11 20 -13 21 -24 7 -10 -15
-13 -15 -28 1 -10 9 -24 15 -31 12 -9 -4 -20 10 -31 41 -10 26 -26 59 -36 73
-14 20 -16 29 -6 39 9 10 9 14 0 17 -7 3 -13 12 -13 20 0 9 -6 13 -14 10 -8
-3 -17 1 -20 9 -9 23 -7 76 2 70 4 -2 8 14 8 36 1 22 10 67 20 100 l18 61 16
-46 c8 -25 23 -54 32 -64z m8139 19 c1 -28 -3 -57 -9 -65 -6 -7 -17 -38 -23
-68 -6 -30 -15 -58 -20 -64 -11 -11 -4 27 22 134 11 41 19 85 19 99 0 47 9 16
11 -36z m-9254 -19 c-3 -10 -5 -2 -5 17 0 19 2 27 5 18 2 -10 2 -26 0 -35z
m7090 -35 c-2 -13 -4 -3 -4 22 0 25 2 35 4 23 2 -13 2 -33 0 -45z m-543 -65
c-19 -14 -38 -17 -31 -5 2 4 7 15 11 26 5 15 9 16 22 5 14 -12 14 -14 -2 -26z
m533 5 c-3 -7 -5 -2 -5 12 0 14 2 19 5 13 2 -7 2 -19 0 -25z m30 -160 c-3 -7
-5 -2 -5 12 0 14 2 19 5 13 2 -7 2 -19 0 -25z m3188 -38 c4 -6 1 -18 -7 -27
-10 -13 -10 -17 0 -20 18 -7 14 -23 -6 -23 -10 0 -23 -5 -30 -12 -6 -6 -36
-12 -66 -13 -34 -2 -67 -10 -88 -22 -18 -11 -46 -24 -62 -27 -62 -15 -152 -92
-187 -159 -25 -48 -36 -44 -12 4 35 71 76 108 202 183 131 77 217 122 238 125
6 0 15 -4 18 -9z m-3198 -22 c-3 -8 -6 -5 -6 6 -1 11 2 17 5 13 3 -3 4 -12 1
-19z m2563 -58 c0 -27 -4 -50 -10 -50 -5 0 -9 -3 -8 -7 3 -10 -61 -121 -73
-129 -5 -3 -9 -1 -9 5 0 5 4 11 8 13 5 2 12 17 15 33 l6 30 -14 -30 -14 -30
-2 30 c-1 17 -1 36 0 43 1 6 -3 12 -9 12 -15 0 -12 32 7 55 l16 20 -8 -20 c-4
-11 -9 -26 -12 -32 -3 -7 2 -13 11 -13 19 0 56 56 56 86 0 24 8 34 27 34 9 0
13 -15 13 -50z m-2624 5 c-6 -25 -36 -36 -36 -13 0 14 31 50 38 44 2 -3 2 -17
-2 -31z m-3694 -20 c3 -3 3 -16 0 -30 -4 -21 -8 -23 -36 -18 -17 3 -34 10 -37
15 -3 6 -9 3 -12 -6 -4 -10 -17 -14 -41 -13 -41 3 -61 19 -53 41 5 13 23 16
90 16 46 0 86 -2 89 -5z m6168 -30 c0 -7 -112 -129 -123 -134 -10 -4 16 29 77
96 37 42 46 49 46 38z m-1952 -24 c3 -10 -1 -11 -19 -5 -13 4 -42 11 -64 15
-35 6 -33 7 19 6 40 -1 61 -6 64 -16z m2662 11 c0 -4 -25 -22 -56 -41 -57 -34
-121 -107 -225 -256 -29 -41 -55 -73 -57 -70 -10 9 86 190 115 217 44 42 134
111 178 135 47 26 45 25 45 15z m-2810 -15 c-33 -17 -95 -39 -87 -30 11 11 81
41 97 42 8 1 4 -5 -10 -12z m-4130 -72 c7 -9 21 -13 31 -10 9 3 20 1 24 -5 4
-6 -23 -10 -79 -10 -79 0 -86 2 -86 20 0 17 7 20 49 20 31 0 53 -5 61 -15z
m-1946 -107 c-4 -24 -11 -52 -15 -63 -5 -12 -6 -1 -2 25 4 25 7 53 7 63 0 9 4
17 8 17 5 0 5 -19 2 -42z m7527 -51 c-10 -9 -11 -8 -5 6 3 10 9 15 12 12 3 -3
0 -11 -7 -18z m-1706 -95 c3 -8 -6 -55 -20 -105 -14 -51 -33 -132 -44 -182
-24 -111 -26 -73 -6 130 8 83 15 156 15 163 0 8 5 10 13 6 10 -6 10 -4 0 7 -7
7 -13 17 -13 21 0 12 48 -24 55 -40z m-3997 -147 c-9 -9 -212 -65 -223 -62 -5
2 40 17 100 34 115 33 132 36 123 28z m-1648 -24 c-8 -5 -26 -12 -40 -15 l-25
-7 25 15 c14 9 32 15 40 15 13 0 13 -1 0 -8z m4516 -58 c-25 -36 -70 -63 -107
-63 -11 0 -19 -2 -19 -4 0 -2 13 -62 29 -132 49 -215 143 -724 136 -732 -2 -2
-19 43 -38 100 -62 183 -148 410 -176 467 -15 31 -51 103 -80 159 -49 98 -51
105 -34 118 10 7 42 14 71 14 40 0 51 3 45 13 -15 23 -11 37 10 37 12 0 42 0
67 0 36 -1 52 5 80 29 19 17 36 30 38 31 1 0 -9 -17 -22 -37z m-3119 10 c-16
-4 -17 -15 -15 -96 l3 -92 78 -3 77 -3 0 -64 0 -65 -29 0 -29 0 -3 -84 c-4
-87 -13 -113 -30 -83 -8 13 -23 17 -63 17 -54 0 -54 0 -86 50 -88 137 -227
209 -422 218 -109 5 -197 -5 -447 -49 -62 -11 -115 -18 -118 -15 -3 2 12 14
34 26 21 12 63 37 93 56 37 23 67 34 95 35 22 0 119 4 215 8 175 8 175 8 385
70 116 33 219 65 230 70 11 5 27 9 35 9 10 0 9 -2 -3 -5z m-1252 -39 c30 -14
30 -14 -15 -9 -32 4 -39 2 -25 -4 15 -7 16 -10 4 -10 -9 -1 -29 11 -45 25
l-29 25 40 -7 c22 -4 54 -13 70 -20z m4104 -11 c2 -2 -3 -3 -11 -3 -9 0 -19 7
-22 16 -6 15 -4 15 11 3 10 -7 20 -15 22 -16z m-4189 -3 c0 -5 -4 -10 -10 -10
-5 0 -10 5 -10 10 0 6 5 10 10 10 6 0 10 -4 10 -10z m-447 -17 c-13 -2 -33 -2
-45 0 -13 2 -3 4 22 4 25 0 35 -2 23 -4z m-403 -7 c0 -3 -4 -8 -10 -11 -5 -3
-10 -1 -10 4 0 6 5 11 10 11 6 0 10 -2 10 -4z m4273 -37 c36 -12 48 -31 27
-44 -6 -4 -54 -1 -108 6 -53 7 -118 11 -144 10 -46 -2 -48 -1 -48 25 l0 27
118 -6 c64 -3 134 -12 155 -18z m2922 -71 c4 -10 3 -18 -3 -18 -12 0 -22 35
-21 70 1 23 2 23 9 -5 4 -16 11 -38 15 -47z m-2900 -20 c-14 -69 -63 -157
-116 -208 -61 -57 -76 -63 -54 -20 8 16 15 37 15 46 0 25 -54 -28 -88 -86 -18
-31 -28 -40 -30 -28 -2 9 2 26 8 37 9 17 8 21 -5 21 -12 0 -10 9 11 43 15 23
30 43 34 45 4 1 16 9 26 16 16 12 13 13 -26 6 -25 -5 -52 -9 -60 -10 -21 0 32
27 68 35 16 3 49 22 72 42 57 49 122 93 138 93 10 0 12 -9 7 -32z m-4885 -19
c-12 -41 -24 -53 -14 -14 7 32 13 45 19 45 2 0 0 -14 -5 -31z m3480 6 c0 -8
-9 -15 -20 -15 -13 0 -18 5 -14 15 4 8 12 15 20 15 8 0 14 -7 14 -15z m906 -4
c-18 -7 -66 -3 -66 5 0 2 19 4 43 3 30 0 36 -3 23 -8z m1911 -53 c-3 -7 -5 -2
-5 12 0 14 2 19 5 13 2 -7 2 -19 0 -25z m1383 22 c0 -5 -4 -10 -10 -10 -5 0
-10 5 -10 10 0 6 5 10 10 10 6 0 10 -4 10 -10z m-2745 -10 c-3 -5 -11 -10 -16
-10 -6 0 -7 5 -4 10 3 6 11 10 16 10 6 0 7 -4 4 -10z m1442 -22 c-3 -7 -5 -2
-5 12 0 14 2 19 5 13 2 -7 2 -19 0 -25z m-2193 -24 c11 -28 7 -33 -21 -25 -16
4 -35 6 -43 4 -9 -3 -8 0 3 7 10 7 25 9 33 6 8 -3 14 -1 14 4 0 5 -24 11 -52
13 l-53 3 56 2 c44 2 58 -2 63 -14z m-4614 -34 c0 -5 -11 -17 -25 -26 -29 -19
-30 -33 -9 -93 22 -65 12 -59 -20 11 l-29 62 32 28 c32 29 51 35 51 18z m1754
2 c3 -5 -27 -14 -67 -20 -40 -7 -82 -15 -94 -18 -18 -5 -23 -2 -23 14 0 16 8
22 33 25 62 7 146 7 151 -1z m5616 -65 c30 -16 62 -11 39 5 -11 8 -11 9 1 5 8
-2 16 -13 18 -24 3 -18 -2 -20 -38 -18 -22 1 -43 -1 -46 -6 -3 -5 -14 -3 -24
3 -18 12 -18 13 8 25 l27 13 -27 -5 c-16 -3 -28 -1 -28 5 0 14 40 12 70 -3z
m90 -7 c0 -11 -2 -20 -4 -20 -2 0 -6 9 -9 20 -3 11 -1 20 4 20 5 0 9 -9 9 -20z
m-430 -6 c0 -8 -9 -14 -19 -14 -15 0 -19 -6 -17 -29 1 -17 -2 -28 -6 -25 -4 3
-8 12 -8 20 0 9 -11 14 -35 14 -26 0 -33 3 -29 15 4 10 0 15 -11 15 -11 0 -15
-5 -11 -15 8 -21 -14 -19 -30 2 -19 27 -29 7 -10 -22 12 -18 13 -25 4 -25 -18
0 -47 20 -30 20 6 0 12 5 12 11 0 5 -4 7 -10 4 -5 -3 -10 1 -10 10 0 9 -4 13
-10 10 -5 -3 -10 -2 -10 4 0 11 33 15 148 18 65 1 82 -2 82 -13z m30 1 c0 -8
-4 -15 -10 -15 -5 0 -10 7 -10 15 0 8 5 15 10 15 6 0 10 -7 10 -15z m210 -13
c-11 -2 -18 -8 -15 -13 4 -5 -1 -9 -10 -9 -9 0 -14 4 -10 9 3 5 -5 12 -17 14
-15 3 -9 5 15 6 22 0 37 6 37 14 0 8 4 7 10 -3 7 -11 5 -16 -10 -18z m320 18
c0 -3 -9 -11 -21 -18 -12 -8 -18 -9 -14 -3 3 6 1 11 -4 11 -6 0 -11 -4 -11
-10 0 -5 -4 -10 -9 -10 -5 0 -7 8 -4 19 3 13 13 18 34 17 16 -1 29 -3 29 -6z
m-7315 -10 c3 -5 1 -10 -4 -10 -6 0 -11 5 -11 10 0 6 2 10 4 10 3 0 8 -4 11
-10z m4439 -21 c-3 -5 -10 -7 -15 -3 -5 3 -7 10 -3 15 3 5 10 7 15 3 5 -3 7
-10 3 -15z m46 6 c0 -8 -4 -15 -10 -15 -5 0 -10 7 -10 15 0 8 5 15 10 15 6 0
10 -7 10 -15z m40 -1 c0 -8 -4 -12 -10 -9 -5 3 -10 10 -10 16 0 5 5 9 10 9 6
0 10 -7 10 -16z m46 8 c7 -5 7 -22 -2 -57 -12 -47 -13 -47 -8 -9 3 25 1 45 -5
49 -13 7 -15 25 -3 25 4 0 12 -4 18 -8z m1930 -6 c18 -19 18 -41 -2 -60 -9 -9
-11 -16 -4 -16 6 0 8 -4 5 -10 -12 -19 -25 -10 -25 18 0 21 -2 24 -10 12 -8
-12 -10 -11 -10 6 0 17 5 20 25 16 15 -2 25 0 25 7 0 6 -7 11 -15 11 -8 0 -15
7 -15 15 0 19 7 19 26 1z m1044 -2 c0 -2 -7 -4 -15 -4 -8 0 -15 4 -15 10 0 5
7 7 15 4 8 -4 15 -8 15 -10z m-1080 2 c0 -2 -7 -7 -16 -10 -8 -3 -12 -2 -9 4
6 10 25 14 25 6z m957 -18 c-3 -8 -6 -5 -6 6 -1 11 2 17 5 13 3 -3 4 -12 1
-19z m-644 5 c-7 -2 -21 -2 -30 0 -10 3 -4 5 12 5 17 0 24 -2 18 -5z m82 0
c-11 -3 -25 -13 -32 -22 -11 -14 -12 -14 -13 7 0 19 5 22 33 21 21 -1 25 -3
12 -6z m79 -8 c-4 -8 -14 -15 -23 -15 -13 0 -13 2 -2 9 11 7 10 10 -5 14 -14
3 -11 5 8 6 20 1 26 -3 22 -14z m70 0 c3 -8 1 -15 -4 -15 -6 0 -10 7 -10 15 0
8 2 15 4 15 2 0 6 -7 10 -15z m-593 -19 c5 3 9 -3 9 -13 0 -13 -7 -19 -24 -19
-24 0 -27 10 -11 36 6 10 10 11 13 2 2 -7 8 -10 13 -6z m369 4 c0 -11 -16 -25
-32 -28 -11 -2 -15 3 -12 16 5 15 44 27 44 12z m254 -5 c-4 -8 -10 -15 -15
-15 -4 0 -6 7 -3 15 4 8 10 15 15 15 4 0 6 -7 3 -15z m41 5 c3 -5 1 -10 -4
-10 -6 0 -11 5 -11 10 0 6 2 10 4 10 3 0 8 -4 11 -10z m-638 -32 c-3 -7 -5 -2
-5 12 0 14 2 19 5 13 2 -7 2 -19 0 -25z m530 16 c-3 -3 -12 -4 -19 -1 -8 3 -5
6 6 6 11 1 17 -2 13 -5z m-6972 -25 c-49 -4 -109 -10 -132 -12 -24 -3 -43 -1
-43 4 0 8 84 14 205 16 45 0 38 -2 -30 -8z m2975 -16 c-1 -24 -2 -26 -11 -10
-5 9 -7 22 -4 27 10 17 15 11 15 -17z m3648 20 c-15 -2 -42 -2 -60 0 -18 2 -6
4 27 4 33 0 48 -2 33 -4z m99 1 c-3 -3 -12 -4 -19 -1 -8 3 -5 6 6 6 11 1 17
-2 13 -5z m-3779 -41 c-5 -26 -24 -26 -36 1 -6 13 -8 27 -5 30 11 10 44 -15
41 -31z m4339 31 c-3 -3 -12 -4 -19 -1 -8 3 -5 6 6 6 11 1 17 -2 13 -5z m-837
-26 c0 -13 4 -18 8 -13 10 14 39 14 39 0 0 -14 -57 -16 -75 -2 -10 8 -15 4
-19 -13 -6 -22 -7 -23 -14 -4 -7 16 -8 17 -8 2 -1 -22 -21 -24 -21 -3 0 14 12
20 34 16 5 -1 6 5 3 13 -6 14 8 22 41 25 6 0 12 -9 12 -21z m-1950 -13 c6 -7
7 -15 3 -18 -9 -5 -305 -12 -397 -9 -48 2 -58 5 -48 15 9 8 67 14 185 17 95 3
189 6 209 7 21 1 41 -4 48 -12z m90 5 c0 -5 -10 -10 -22 -9 -22 0 -22 1 -3 9
11 5 21 9 23 9 1 1 2 -3 2 -9z m-775 -20 c-28 -12 -115 -12 -115 0 0 6 29 10
68 9 46 0 61 -3 47 -9z m2668 -17 c-7 -2 -19 -2 -25 0 -7 3 -2 5 12 5 14 0 19
-2 13 -5z m-53 -33 c-8 -5 -17 -7 -19 -4 -3 3 1 9 9 14 8 5 17 7 19 4 3 -3 -1
-9 -9 -14z m-30 -15 c0 -21 -2 -24 -13 -13 -10 9 -11 16 -3 25 15 17 16 16 16
-12z m-6146 -47 c8 -43 3 -44 -16 -3 -12 26 -12 35 -3 35 7 0 15 -14 19 -32z
m6126 22 c0 -5 -5 -10 -11 -10 -5 0 -7 5 -4 10 3 6 8 10 11 10 2 0 4 -4 4 -10z
m-3 -26 c-3 -3 -12 -4 -19 -1 -8 3 -5 6 6 6 11 1 17 -2 13 -5z m57 -1 c-5 -5
-12 -12 -16 -18 -4 -6 -8 -2 -8 8 0 9 7 17 17 17 9 0 12 -3 7 -7z m-54 -17 c0
-2 -7 -6 -15 -10 -8 -3 -15 -1 -15 4 0 6 7 10 15 10 8 0 15 -2 15 -4z m-6091
-106 c0 -9 -4 -8 -9 5 -5 11 -9 27 -9 35 0 9 4 8 9 -5 5 -11 9 -27 9 -35z
m9249 21 c10 -6 7 -10 -10 -13 -16 -3 -25 0 -25 9 0 15 16 17 35 4z m-3141
-17 c-3 -3 -12 -4 -19 -1 -8 3 -5 6 6 6 11 1 17 -2 13 -5z m-6140 -36 c-3 -8
-6 -5 -6 6 -1 11 2 17 5 13 3 -3 4 -12 1 -19z m63 -57 c-1 -13 -29 45 -29 59
0 8 6 0 14 -19 8 -18 15 -36 15 -40z m6600 9 c0 -5 -7 -7 -15 -4 -8 4 -15 8
-15 10 0 2 7 4 15 4 8 0 15 -4 15 -10z m-6625 -30 c3 -5 1 -10 -4 -10 -6 0
-11 5 -11 10 0 6 2 10 4 10 3 0 8 -4 11 -10z m6072 4 c-3 -3 -12 -4 -19 -1 -8
3 -5 6 6 6 11 1 17 -2 13 -5z m6 -21 c-7 -2 -19 -2 -25 0 -7 3 -2 5 12 5 14 0
19 -2 13 -5z m-6029 -56 l-7 -22 -8 23 c-5 12 -6 29 -2 38 5 15 7 15 15 0 5
-9 6 -26 2 -39z m6774 37 c4 2 13 -2 20 -10 11 -12 9 -14 -8 -14 -11 0 -20 2
-20 4 0 2 -2 10 -3 18 -2 7 -2 10 0 5 3 -4 8 -5 11 -3z m-6808 -9 c0 -22 39
-133 67 -190 16 -31 19 -44 9 -35 -12 12 -96 217 -96 235 0 3 5 5 10 5 6 0 10
-7 10 -15z m6760 -15 c-22 -7 -23 -8 -4 -9 27 -1 56 -31 30 -31 -9 0 -16 5
-16 11 0 6 -9 9 -19 6 -17 -4 -20 4 -12 31 1 1 11 2 24 1 21 -1 21 -1 -3 -9z
m600 -20 c-41 -34 -67 -41 -49 -12 12 20 45 39 69 41 8 0 -1 -13 -20 -29z
m-655 9 c4 -6 4 -13 0 -17 -3 -3 -10 0 -14 7 -7 11 -9 11 -13 0 -3 -8 -9 -11
-13 -7 -10 9 3 28 20 28 8 0 17 -5 20 -11z m131 -14 c13 -13 13 -15 1 -15 -8
0 -17 7 -21 15 -3 8 -3 15 0 15 3 0 12 -7 20 -15z m194 -6 c0 -5 -8 -9 -17
-10 -12 -1 -10 -4 7 -10 l25 -8 -24 2 c-14 1 -27 11 -32 23 -6 18 -4 20 17 16
13 -2 24 -8 24 -13z m-6971 -19 c11 -24 11 -24 -3 -6 -11 13 -16 15 -16 6 0
-7 -2 -11 -5 -8 -3 3 -3 13 1 22 7 19 7 19 23 -14z m6588 24 c-3 -3 -12 -4
-19 -1 -8 3 -5 6 6 6 11 1 17 -2 13 -5z m57 -23 c4 -5 -3 -7 -14 -4 -23 6 -26
13 -6 13 8 0 17 -4 20 -9z m390 -12 c-31 -12 -39 -10 -19 5 11 8 24 12 29 8 5
-3 1 -9 -10 -13z m-6949 -167 c-4 -4 -75 133 -75 145 0 5 18 -25 40 -66 22
-41 38 -77 35 -79z m8023 108 c-11 -17 -38 -28 -38 -16 0 18 15 36 31 36 17 0
18 -3 7 -20z m-7879 -143 c28 -42 85 -113 128 -158 56 -59 70 -78 48 -66 -36
18 -109 94 -154 160 -17 26 -36 47 -41 47 -7 0 -60 82 -60 93 0 3 7 4 15 3 8
-1 37 -37 64 -79z m-291 18 c-3 -3 -9 2 -12 12 -6 14 -5 15 5 6 7 -7 10 -15 7
-18z m121 -21 c12 -20 20 -38 18 -41 -4 -4 -47 63 -47 73 0 11 10 1 29 -32z
m4029 29 c-21 -2 -55 -2 -75 0 -21 2 -4 4 37 4 41 0 58 -2 38 -4z m-275 -10
c-34 -2 -93 -2 -130 0 -37 2 -9 3 62 3 72 0 102 -1 68 -3z m-3699 -19 c3 -8 2
-12 -4 -9 -6 3 -10 10 -10 16 0 14 7 11 14 -7z m3369 9 c-46 -2 -120 -2 -165
0 -46 1 -9 3 82 3 91 0 128 -2 83 -3z m-3525 -28 c-3 -3 -9 2 -12 12 -6 14 -5
15 5 6 7 -7 10 -15 7 -18z m3155 18 c-40 -2 -106 -2 -145 0 -40 1 -8 3 72 3
80 0 112 -2 73 -3z m1147 1 c-8 -2 -168 -8 -355 -14 -187 -6 -403 -13 -480
-15 -77 -2 -222 -7 -322 -10 -109 -4 -183 -3 -183 3 0 5 153 12 358 17 196 4
449 11 562 15 224 7 444 10 420 4z m7 -30 c-3 -3 -12 -4 -19 -1 -8 3 -5 6 6 6
11 1 17 -2 13 -5z m-194 -11 c-13 -2 -33 -2 -45 0 -13 2 -3 4 22 4 25 0 35 -2
23 -4z m-358 -13 c-295 -13 -780 -23 -774 -16 3 3 145 9 315 12 170 4 311 8
313 10 2 2 74 3 160 2 l156 -1 -170 -7z m-3725 -20 c6 -11 8 -20 6 -20 -3 0
-10 9 -16 20 -6 11 -8 20 -6 20 3 0 10 -9 16 -20z m4168 3 c-21 -2 -57 -2 -80
0 -24 2 -7 4 37 4 44 0 63 -2 43 -4z m-392 -10 c-11 -11 -790 -33 -800 -23 -7
7 43 10 135 11 143 2 602 14 648 17 13 1 21 -1 17 -5z m142 0 c-21 -2 -57 -2
-80 0 -24 2 -7 4 37 4 44 0 63 -2 43 -4z m142 -29 c-37 -8 -180 -10 -180 -2 0
4 44 7 98 7 53 -1 90 -3 82 -5z m-4610 -43 c-10 -22 -23 -41 -27 -43 -5 -2
-23 -19 -41 -39 l-33 -36 30 -48 c17 -27 28 -51 26 -54 -8 -8 -30 19 -60 74
l-27 49 48 41 c27 22 60 52 74 67 14 15 26 28 28 28 1 0 -7 -18 -18 -39z
m4260 29 l-65 -5 90 -8 c50 -4 110 -11 135 -17 42 -9 121 -18 183 -23 19 -1
27 -7 27 -20 0 -11 6 -17 18 -15 12 2 17 -4 17 -22 0 -16 -5 -24 -13 -22 -8 1
-118 -4 -245 -13 -128 -8 -304 -19 -392 -25 -88 -5 -181 -12 -206 -15 -29 -3
-92 4 -170 19 -296 59 -298 59 -579 57 -146 -2 -263 -1 -260 2 5 4 270 16 373
17 53 0 57 1 57 24 0 24 1 24 128 30 70 3 147 11 172 16 25 5 115 13 200 16
85 3 157 8 159 10 2 2 101 2 220 1 119 -1 187 -4 151 -7z m-3540 -45 c0 -12
-20 6 -31 28 l-11 22 21 -22 c11 -12 21 -25 21 -28z m4137 39 c-3 -3 -12 -4
-19 -1 -8 3 -5 6 6 6 11 1 17 -2 13 -5z m506 -1 c-24 -2 -62 -2 -85 0 -24 2
-5 4 42 4 47 0 66 -2 43 -4z m-4753 -43 c6 -11 8 -20 6 -20 -3 0 -10 9 -16 20
-6 11 -8 20 -6 20 3 0 10 -9 16 -20z m-574 -86 c-21 -32 -23 -39 -10 -51 17
-18 18 -33 1 -33 -6 0 -18 14 -26 30 -12 29 -11 32 21 68 40 45 49 37 14 -14z
m624 16 c17 -22 29 -40 27 -40 -3 0 -20 18 -37 40 -17 22 -29 40 -27 40 3 0
20 -18 37 -40z m-579 -23 c-10 -9 -11 -8 -5 6 3 10 9 15 12 12 3 -3 0 -11 -7
-18z m710 6 c13 -16 12 -17 -3 -4 -10 7 -18 15 -18 17 0 8 8 3 21 -13z m254
-7 c11 -7 49 -25 85 -39 65 -26 57 -38 -10 -14 -38 13 -121 67 -105 67 6 0 19
-6 30 -14z m494 -20 c-9 -9 -139 -33 -139 -25 0 4 26 11 58 17 70 12 87 13 81
8z m-1469 -21 c7 -9 8 -15 2 -15 -5 0 -12 7 -16 15 -3 8 -4 15 -2 15 2 0 9 -7
16 -15z m2383 -30 c-4 -15 -36 -12 -41 3 -3 9 3 13 19 10 13 -1 23 -7 22 -13z
m-1209 -1 c8 -3 12 -12 9 -20 -3 -8 -9 -11 -14 -8 -5 3 -6 10 -3 16 5 7 -2 9
-19 6 -15 -3 -24 -1 -21 3 6 10 26 12 48 3z m8391 -50 c33 -8 74 -13 90 -11
17 3 47 -2 68 -11 31 -12 43 -12 61 -2 29 15 82 5 95 -18 8 -15 15 -15 55 -4
31 8 53 9 71 2 15 -6 37 -10 51 -10 15 0 24 -6 24 -15 0 -8 5 -15 10 -15 6 0
10 7 10 16 0 9 11 25 25 36 14 11 25 26 25 34 0 17 52 19 83 3 52 -27 120 -87
138 -121 10 -21 28 -42 39 -48 11 -6 20 -17 20 -25 0 -7 6 -15 13 -18 6 -3
-10 -4 -36 -2 -26 1 -50 5 -54 8 -3 4 -18 0 -33 -8 -25 -13 -29 -13 -34 0 -7
19 -36 19 -36 0 0 -16 -16 -20 -97 -30 -31 -3 -54 -1 -58 5 -10 17 -25 11 -25
-9 0 -28 -28 -34 -57 -11 -14 11 -33 20 -42 20 -9 0 -25 14 -36 30 -24 37 -31
37 -61 4 -26 -27 -52 -26 -86 4 -14 12 -23 12 -45 4 -50 -20 -97 -23 -138 -8
-22 8 -44 11 -50 6 -22 -17 -85 -21 -113 -6 -19 10 -33 11 -44 5 -10 -5 -39
-7 -65 -4 -26 3 -86 8 -133 11 -47 3 -100 12 -119 21 -26 12 -42 13 -75 5 -22
-6 -63 -13 -90 -15 -67 -7 -37 10 41 22 32 5 75 14 96 19 20 6 39 6 42 2 3 -4
19 -6 37 -5 44 4 47 6 20 13 -28 8 -33 22 -12 32 8 4 42 20 75 35 33 16 67 32
75 37 57 32 60 32 92 13 31 -18 32 -18 46 3 18 27 54 28 137 6z m-7030 -24
c30 0 36 -3 25 -10 -14 -9 -46 -7 -92 6 -10 3 -18 12 -18 20 0 13 3 13 22 0
12 -9 41 -16 63 -16z m-487 -27 c-10 -2 -26 -2 -35 0 -10 3 -2 5 17 5 19 0 27
-2 18 -5z m75 -10 c-7 -2 -21 -2 -30 0 -10 3 -4 5 12 5 17 0 24 -2 18 -5z m37
-3 c0 -5 -4 -10 -10 -10 -5 0 -10 5 -10 10 0 6 5 10 10 10 6 0 10 -4 10 -10z
m598 -28 c9 -6 0 -13 -28 -21 -25 -7 -40 -18 -41 -29 -1 -16 -2 -16 -6 0 -2 9
-20 22 -40 29 -26 8 -32 14 -22 20 18 11 120 11 137 1z m-948 -106 c0 -3 -4
-8 -10 -11 -5 -3 -10 -1 -10 4 0 6 5 11 10 11 6 0 10 -2 10 -4z m8857 -49 c-6
-20 -27 -19 -27 2 0 14 5 19 15 14 9 -3 14 -10 12 -16z"/>
<path d="M1511 5602 c-12 -28 -6 -82 8 -82 11 0 8 44 -3 53 -7 4 -8 10 -1 15
10 7 20 42 12 42 -3 0 -10 -13 -16 -28z"/>
<path d="M6105 4803 c-70 -8 -95 -15 -90 -22 5 -9 37 -8 102 4 24 4 40 11 37
16 -3 5 -8 8 -12 8 -4 -1 -20 -4 -37 -6z"/>
<path d="M10257 3480 c-3 -11 -1 -20 4 -20 5 0 9 9 9 20 0 11 -2 20 -4 20 -2
0 -6 -9 -9 -20z"/>
<path d="M3955 3520 c-3 -5 -1 -10 4 -10 6 0 11 5 11 10 0 6 -2 10 -4 10 -3 0
-8 -4 -11 -10z"/>
<path d="M2691 2730 c8 -3 43 -3 79 0 l65 7 -79 0 c-43 0 -73 -3 -65 -7z"/>
<path d="M3468 2623 c23 -2 59 -2 80 0 20 2 1 4 -43 4 -44 0 -61 -2 -37 -4z"/>
<path d="M7303 2503 c9 -2 23 -2 30 0 6 3 -1 5 -18 5 -16 0 -22 -2 -12 -5z"/>
<path d="M4903 1473 c15 -2 39 -2 55 0 15 2 2 4 -28 4 -30 0 -43 -2 -27 -4z"/>
<path d="M4788 1463 c6 -2 18 -2 25 0 6 3 1 5 -13 5 -14 0 -19 -2 -12 -5z"/>
<path d="M10716 1301 c-4 -5 -2 -12 3 -15 5 -4 12 -2 15 3 4 5 2 12 -3 15 -5
4 -12 2 -15 -3z"/>
<path d="M9908 1240 c-7 -24 -3 -38 8 -28 3 4 4 17 2 30 l-3 23 -7 -25z"/>
<path d="M10780 1210 c0 -5 5 -10 10 -10 6 0 10 5 10 10 0 6 -4 10 -10 10 -5
0 -10 -4 -10 -10z"/>
<path d="M9871 1157 c-13 -16 -5 -27 20 -27 24 0 35 20 18 31 -19 12 -25 11
-38 -4z"/>
<path d="M5465 7420 c-3 -6 1 -7 9 -4 18 7 21 14 7 14 -6 0 -13 -4 -16 -10z"/>
<path d="M5343 7380 c0 -25 2 -35 4 -22 2 12 2 32 0 45 -2 12 -4 2 -4 -23z"/>
<path d="M5343 7235 c0 -27 2 -38 4 -22 2 15 2 37 0 50 -2 12 -4 0 -4 -28z"/>
<path d="M5343 7045 c0 -22 2 -30 4 -17 2 12 2 30 0 40 -3 9 -5 -1 -4 -23z"/>
<path d="M5341 6485 c1 -48 1 -49 9 -15 5 19 4 41 0 50 -6 10 -9 -1 -9 -35z"/>
<path d="M8942 6471 c-10 -6 -5 -12 17 -21 43 -18 42 -43 -2 -35 -24 5 -37 2
-46 -9 -11 -12 -17 -14 -27 -5 -11 9 -14 6 -14 -19 0 -25 3 -29 20 -25 12 3
20 2 18 -3 -2 -5 18 -30 45 -55 50 -49 59 -78 32 -115 -11 -17 -14 -51 -6 -84
1 -3 8 8 16 23 8 15 11 35 8 43 -3 9 3 21 17 31 18 13 21 22 17 52 -3 20 -2
45 3 56 4 11 3 31 -1 43 -14 36 0 46 27 21 28 -26 34 -7 7 23 -13 15 -14 23
-5 43 16 34 36 23 51 -27 14 -46 8 -100 -20 -171 -32 -80 -38 -121 -23 -148
13 -23 13 -22 14 23 0 28 12 77 30 121 40 100 41 169 3 209 -28 30 -88 39
-110 17 -8 -8 -17 -7 -35 5 -13 9 -29 12 -36 7z"/>
<path d="M5340 6395 c0 -8 4 -15 10 -15 5 0 7 7 4 15 -4 8 -8 15 -10 15 -2 0
-4 -7 -4 -15z"/>
<path d="M5485 6356 c-9 -47 -2 -64 47 -113 46 -46 151 -133 155 -129 1 1 -2
19 -8 39 -8 31 -149 213 -178 232 -6 3 -13 -10 -16 -29z"/>
<path d="M5352 6320 c0 -14 2 -19 5 -12 2 6 2 18 0 25 -3 6 -5 1 -5 -13z"/>
<path d="M5421 6113 c1 -17 3 -21 6 -11 4 16 7 16 33 3 45 -23 49 -18 8 10
-46 31 -48 31 -47 -2z"/>
<path d="M4901 6076 c10 -34 19 -46 19 -23 0 8 4 17 9 19 22 8 15 31 -10 32
-24 1 -26 -1 -18 -28z"/>
<path d="M1431 5991 c-8 -6 -9 -11 -3 -15 6 -3 14 -1 17 5 9 14 2 20 -14 10z"/>
<path d="M1360 5939 c0 -5 5 -7 10 -4 6 3 10 8 10 11 0 2 -4 4 -10 4 -5 0 -10
-5 -10 -11z"/>
<path d="M4701 5916 c-1 -15 -4 -16 -16 -6 -8 7 -15 8 -15 3 0 -5 11 -15 25
-21 27 -12 29 -9 15 23 -8 19 -9 19 -9 1z"/>
<path d="M1255 5759 c-4 -6 -5 -12 -2 -15 2 -3 7 2 10 11 7 17 1 20 -8 4z"/>
<path d="M4698 5643 c7 -3 16 -2 19 1 4 3 -2 6 -13 5 -11 0 -14 -3 -6 -6z"/>
<path d="M4768 5633 c6 -2 18 -2 25 0 6 3 1 5 -13 5 -14 0 -19 -2 -12 -5z"/>
<path d="M1004 5613 c4 -8 1 -13 -8 -13 -15 0 -20 -11 -17 -37 2 -16 -16 -26
-24 -13 -8 13 -30 -8 -39 -38 -4 -12 -11 -22 -15 -22 -5 0 -19 -22 -32 -50
-13 -27 -27 -50 -31 -50 -4 0 -5 -6 -2 -13 2 -7 -2 -30 -11 -50 -19 -45 -19
-48 0 -41 8 4 15 12 15 19 0 7 13 41 30 76 16 34 27 66 24 71 -3 5 0 16 7 24
10 12 14 12 22 2 6 -10 7 -8 3 4 -3 10 0 16 7 13 7 -2 25 12 41 32 24 29 27
36 15 45 -11 8 -11 9 3 5 26 -9 42 17 21 34 -11 9 -14 10 -9 2z"/>
<path d="M1058 5603 c-10 -2 -18 -14 -18 -25 0 -16 5 -19 23 -14 12 3 25 6 30
6 4 0 7 5 7 11 0 6 -9 8 -22 3 -20 -6 -21 -5 -9 10 7 9 12 15 10 15 -2 -1 -12
-3 -21 -6z"/>
<path d="M851 5553 c-2 -23 -4 -28 -17 -38 -7 -5 -14 -19 -16 -30 -2 -11 -10
-19 -17 -17 -10 2 -12 -5 -7 -23 4 -14 2 -35 -4 -46 -6 -11 -10 -25 -8 -30 2
-6 9 0 15 13 33 71 62 128 79 154 15 23 15 26 2 16 -13 -10 -17 -10 -21 0 -4
10 -6 10 -6 1z"/>
<path d="M1003 5523 c-3 -10 -13 -27 -22 -38 -16 -20 -16 -20 6 -2 11 10 23
27 26 38 6 24 -1 25 -10 2z"/>
<path d="M950 5439 c-7 -11 -10 -23 -7 -25 2 -2 9 7 15 21 14 30 7 33 -8 4z"/>
<path d="M991 5427 c-13 -21 -12 -21 5 -5 10 10 16 20 13 22 -3 3 -11 -5 -18
-17z"/>
<path d="M886 5336 c-18 -28 -20 -36 -8 -36 10 0 35 50 29 57 -2 2 -12 -8 -21
-21z"/>
<path d="M925 5340 c-3 -5 -2 -10 4 -10 5 0 13 5 16 10 3 6 2 10 -4 10 -5 0
-13 -4 -16 -10z"/>
<path d="M4930 5345 c0 -6 56 -35 67 -35 4 0 -7 9 -25 20 -33 20 -42 24 -42
15z"/>
<path d="M5037 5309 c7 -7 15 -10 18 -7 3 3 -2 9 -12 12 -14 6 -15 5 -6 -5z"/>
<path d="M888 5280 c-22 -39 -15 -39 12 0 12 17 18 30 13 30 -4 0 -16 -14 -25
-30z"/>
<path d="M5080 5296 c0 -2 11 -6 25 -8 13 -3 22 -1 19 3 -5 9 -44 13 -44 5z"/>
<path d="M4990 5270 c8 -5 22 -9 30 -9 10 0 8 3 -5 9 -27 12 -43 12 -25 0z"/>
<path d="M5083 5243 c9 -2 23 -2 30 0 6 3 -1 5 -18 5 -16 0 -22 -2 -12 -5z"/>
<path d="M2390 5233 c0 -5 -3 -92 -6 -195 -4 -124 -2 -193 5 -205 8 -13 11 40
10 195 -1 116 -3 212 -5 212 -2 0 -4 -3 -4 -7z"/>
<path d="M5153 5233 c9 -2 25 -2 35 0 9 3 1 5 -18 5 -19 0 -27 -2 -17 -5z"/>
<path d="M811 5160 c0 -8 6 -24 14 -34 19 -25 19 -9 0 24 -8 14 -14 19 -14 10z"/>
<path d="M9561 5098 c3 -28 -2 -40 -15 -35 -7 3 -18 1 -24 -5 -7 -7 -14 -4
-21 11 l-11 20 -25 -21 c-28 -24 -37 -71 -10 -48 13 10 15 9 15 -8 0 -14 -5
-20 -13 -16 -17 6 -41 -20 -35 -38 3 -7 18 -13 34 -13 22 0 30 -5 32 -21 2
-12 12 -24 24 -27 13 -4 17 -10 12 -18 -5 -8 -3 -10 5 -5 7 5 10 14 7 21 -4
11 21 24 47 25 16 0 6 -32 -12 -37 -16 -4 -18 -10 -12 -27 10 -24 11 -30 11
-51 0 -8 6 -15 13 -15 8 0 12 14 11 40 0 22 3 40 8 40 5 0 6 5 3 10 -3 6 3 10
14 10 11 0 23 5 26 10 3 6 -1 10 -9 10 -9 0 -17 5 -17 10 -2 14 -3 19 -19 67
-11 37 -11 48 3 83 l15 40 -29 0 c-18 0 -29 -5 -28 -12z"/>
<path d="M9609 5063 c-12 -33 -4 -86 15 -102 11 -9 15 -6 20 11 4 15 0 27 -10
35 -11 8 -14 20 -9 47 8 43 -1 48 -16 9z"/>
<path d="M885 5057 c6 -14 45 -41 51 -34 2 2 -10 13 -26 25 -16 12 -27 16 -25
9z"/>
<path d="M9640 5031 c0 -6 4 -13 10 -16 6 -3 7 1 4 9 -7 18 -14 21 -14 7z"/>
<path d="M1000 5010 c-11 -7 1 -10 40 -10 39 0 51 3 40 10 -8 5 -26 10 -40 10
-14 0 -32 -5 -40 -10z"/>
<path d="M9555 4900 c-3 -5 -1 -10 4 -10 6 0 11 5 11 10 0 6 -2 10 -4 10 -3 0
-8 -4 -11 -10z"/>
<path d="M9620 4869 c0 -6 10 -30 22 -53 29 -53 27 -50 35 -43 8 8 -37 107
-49 107 -4 0 -8 -5 -8 -11z"/>
<path d="M5867 4856 c4 -13 3 -17 -5 -12 -7 4 -12 2 -12 -4 0 -7 6 -10 14 -7
8 3 17 1 19 -6 2 -7 7 -9 11 -6 4 3 -3 17 -14 30 -16 19 -19 20 -13 5z"/>
<path d="M9616 4790 c3 -14 13 -36 20 -50 l13 -25 1 26 c0 15 -9 37 -21 50
l-20 24 7 -25z"/>
<path d="M5888 4773 c6 -2 18 -2 25 0 6 3 1 5 -13 5 -14 0 -19 -2 -12 -5z"/>
<path d="M4058 4743 c6 -2 12 -9 12 -14 0 -4 -6 -6 -14 -3 -8 3 -17 1 -20 -4
-3 -6 1 -12 9 -16 9 -3 12 -12 8 -22 -3 -10 -2 -15 3 -12 5 3 20 -9 33 -26 14
-17 18 -25 11 -18 -20 17 -30 15 -30 -8 0 -31 51 -50 173 -61 131 -13 165 -14
232 -5 49 6 50 6 20 -9 -39 -18 -23 -19 39 0 62 19 78 19 46 -1 l-25 -15 30 7
c60 13 97 15 90 4 -6 -10 21 -7 64 6 7 2 43 -1 80 -8 l66 -12 -40 -7 c-22 -3
-46 -4 -55 -2 -13 4 -13 4 0 -6 9 -7 36 -9 72 -5 34 3 71 1 93 -6 20 -7 38
-10 41 -7 3 2 -35 19 -83 36 -118 42 -231 54 -418 44 -182 -10 -184 -10 -276
22 -52 17 -83 35 -106 60 -33 36 -27 61 8 29 10 -9 19 -12 19 -7 0 15 -68 73
-83 72 -9 0 -9 -2 1 -6z"/>
<path d="M5835 4743 c-128 -5 -134 -23 -8 -23 56 0 104 -3 106 -7 3 -5 -27 -7
-66 -5 -40 2 -97 -1 -127 -6 -54 -9 -54 -10 -15 -12 37 -2 34 -3 -30 -17 -38
-9 -80 -16 -92 -17 -13 0 -23 -6 -23 -13 0 -22 12 -43 26 -43 8 0 14 -4 14
-10 0 -5 8 -6 17 -3 12 5 15 2 10 -10 -4 -11 -1 -17 9 -17 8 0 12 -5 9 -10 -4
-6 -3 -10 2 -9 15 4 68 -25 107 -59 44 -39 83 -57 144 -67 30 -5 42 -12 42
-23 0 -10 20 -42 45 -72 25 -30 69 -102 98 -159 53 -106 67 -138 49 -112 -14
20 -31 4 -65 -57 -22 -40 -27 -65 -33 -162 l-6 -115 48 -79 c29 -49 59 -85 78
-95 16 -9 39 -26 50 -39 78 -88 177 -172 203 -172 23 0 -61 286 -96 325 -14
16 -18 23 -8 16 9 -7 17 -9 17 -5 0 22 -130 410 -210 629 -89 240 -183 457
-197 453 -5 -1 -48 -4 -98 -5z m417 -940 c30 -62 51 -113 46 -113 -5 0 -11 8
-15 18 -3 9 -30 68 -59 129 -30 62 -56 132 -59 155 -5 39 -3 37 13 -17 10 -33
43 -111 74 -172z"/>
<path d="M4005 4730 c-3 -5 -2 -10 4 -10 5 0 13 5 16 10 3 6 2 10 -4 10 -5 0
-13 -4 -16 -10z"/>
<path d="M1020 4660 c0 -5 5 -10 10 -10 6 0 10 5 10 10 0 6 -4 10 -10 10 -5 0
-10 -4 -10 -10z"/>
<path d="M4190 4640 c8 -5 24 -10 34 -10 26 0 18 6 -19 14 -22 5 -26 4 -15 -4z"/>
<path d="M4360 4630 c-56 -6 -59 -7 -25 -10 62 -5 186 0 225 9 28 7 17 9 -50
8 -47 0 -114 -3 -150 -7z"/>
<path d="M4793 4609 c10 -6 21 -8 24 -5 3 3 15 0 26 -6 11 -6 37 -13 56 -15
20 -3 41 -10 48 -15 7 -5 28 -11 47 -13 42 -4 126 -40 126 -54 0 -6 15 -11 34
-11 32 0 33 1 23 23 -12 27 -61 43 -251 82 -132 28 -162 31 -133 14z"/>
<path d="M1700 4565 c-12 -25 -19 -52 -16 -60 7 -20 70 -20 86 0 10 12 10 15
-4 15 -19 0 -18 -3 -6 40 7 25 7 36 -3 42 -24 15 -35 8 -57 -37z"/>
<path d="M5010 4482 c0 -5 -12 -8 -27 -5 -24 3 -25 2 -8 -6 11 -5 33 -10 49
-10 60 -2 255 -114 348 -201 49 -45 68 -52 41 -15 -44 60 -403 271 -403 237z"/>
<path d="M2071 4420 c9 -14 19 -37 23 -52 3 -16 11 -28 16 -28 6 0 10 2 10 5
0 13 -41 84 -52 91 -8 5 -7 -1 3 -16z"/>
<path d="M2040 4363 c31 -106 89 -247 98 -238 2 2 -5 28 -16 57 -12 29 -33 86
-47 125 -26 70 -52 112 -35 56z"/>
<path d="M9540 4315 c-10 -12 -9 -16 5 -21 19 -8 40 9 31 25 -10 15 -21 14
-36 -4z"/>
<path d="M522 4252 c-38 -41 -71 -116 -58 -129 2 -3 18 19 35 49 16 29 34 58
39 64 15 16 34 55 30 59 -2 3 -23 -17 -46 -43z"/>
<path d="M570 4219 c-8 -11 -14 -25 -13 -29 2 -5 -5 -11 -15 -15 -34 -11 -84
-92 -89 -143 l-4 -47 14 38 c18 45 30 61 81 109 31 29 37 40 28 50 -8 11 -6
17 9 26 10 7 19 17 19 22 0 17 -15 11 -30 -11z"/>
<path d="M2177 4203 c8 -50 13 -55 13 -10 0 20 -4 38 -9 42 -6 3 -7 -10 -4
-32z"/>
<path d="M1901 4065 c0 -11 6 -31 14 -45 18 -32 19 -5 0 35 -10 23 -13 25 -14
10z"/>
<path d="M1895 3983 c4 -21 10 -44 15 -52 13 -23 17 2 8 47 -11 53 -33 58 -23
5z"/>
<path d="M6782 3930 c0 -14 2 -19 5 -12 2 6 2 18 0 25 -3 6 -5 1 -5 -13z"/>
<path d="M8676 3773 c-6 -14 -5 -15 5 -6 7 7 10 15 7 18 -3 3 -9 -2 -12 -12z"/>
<path d="M8682 3680 c0 -14 2 -19 5 -12 2 6 2 18 0 25 -3 6 -5 1 -5 -13z"/>
<path d="M2970 3669 c0 -11 4 -18 10 -14 5 3 7 12 3 20 -7 21 -13 19 -13 -6z"/>
<path d="M6945 3660 c3 -5 8 -10 11 -10 2 0 4 5 4 10 0 6 -5 10 -11 10 -5 0
-7 -4 -4 -10z"/>
<path d="M3055 3614 c-8 -13 -15 -28 -15 -34 0 -6 -4 -8 -10 -5 -5 3 -10 -1
-10 -11 0 -13 -3 -14 -15 -4 -12 10 -15 10 -15 -4 0 -24 -35 -19 -48 7 -10 20
-11 20 -11 3 -1 -18 -5 -16 -32 10 -19 18 -28 22 -24 11 10 -23 -4 -21 -34 6
l-25 22 16 -25 c9 -15 25 -25 39 -25 12 0 25 -7 27 -15 3 -8 13 -22 24 -31 32
-29 19 -32 -17 -5 -40 31 -45 19 -14 -31 15 -24 18 -38 11 -45 -7 -7 -15 -2
-27 16 -17 26 -68 46 -115 46 -24 0 -23 -2 18 -41 23 -22 42 -43 42 -48 0 -4
8 -15 18 -24 16 -14 21 -13 68 9 28 13 78 29 110 35 62 11 154 38 154 45 0 3
-10 9 -22 13 -22 8 -22 9 -4 17 13 5 23 2 30 -8 7 -9 28 -17 47 -19 28 -3 44
4 75 30 36 31 34 33 -13 14 -13 -5 -15 -3 -10 12 6 13 4 15 -5 8 -7 -5 -22
-13 -32 -17 -16 -5 -17 -4 -6 9 10 12 10 15 -4 15 -18 0 -22 15 -6 25 6 3 10
11 10 16 0 6 -11 -3 -25 -18 -27 -31 -30 -25 -16 25 6 20 6 30 0 27 -5 -4 -9
-14 -9 -24 0 -20 -37 -58 -47 -48 -3 4 2 16 11 26 15 17 16 22 4 38 -20 28
-74 26 -93 -3z m20 -36 c-7 -41 -32 -94 -41 -86 -4 5 37 128 43 128 3 0 2 -19
-2 -42z m-105 -58 c0 -5 -5 -10 -11 -10 -5 0 -7 5 -4 10 3 6 8 10 11 10 2 0 4
-4 4 -10z m55 -40 c3 -5 3 -15 -1 -21 -6 -11 -23 6 -24 24 0 10 18 9 25 -3z
m-182 -40 c10 -16 15 -30 12 -30 -4 0 -20 14 -35 30 -22 24 -24 30 -11 30 9 0
25 -13 34 -30z"/>
<path d="M5356 3601 c-4 -7 -5 -15 -2 -18 9 -9 19 4 14 18 -4 11 -6 11 -12 0z"/>
<path d="M4645 3560 c4 -6 11 -8 16 -5 14 9 11 15 -7 15 -8 0 -12 -5 -9 -10z"/>
<path d="M2775 3550 c9 -15 66 -43 73 -36 7 7 6 7 -41 29 -21 10 -36 13 -32 7z"/>
<path d="M9668 3537 c-20 -16 -28 -32 -27 -52 0 -28 1 -28 9 -8 5 12 18 31 29
42 12 12 21 26 21 31 0 13 -1 13 -32 -13z"/>
<path d="M4471 3511 c-11 -7 -11 -10 0 -14 8 -3 0 -3 -18 0 -18 3 -40 2 -50
-2 -10 -4 -74 -9 -142 -10 -68 -2 -127 -7 -132 -12 -4 -4 -11 -32 -15 -60 l-7
-53 53 0 c49 0 54 2 94 47 l43 47 69 1 c38 0 81 -4 96 -8 24 -8 26 -7 21 12
-7 26 8 27 31 2 12 -13 14 -21 6 -26 -7 -4 0 -20 18 -43 45 -57 64 -101 57
-129 -4 -19 -10 -23 -27 -17 -21 6 -21 5 -14 -107 3 -63 7 -165 8 -227 1 -105
7 -137 23 -112 4 6 21 8 41 4 34 -6 35 -5 32 22 -2 19 1 28 10 26 6 -1 12 2
12 8 0 5 -7 10 -15 10 -11 0 -15 11 -15 36 0 21 4 33 10 29 7 -4 7 2 0 19 -5
15 -6 52 -1 91 4 35 4 70 -1 77 -11 19 -10 108 2 108 6 0 9 19 9 43 -2 29 -3
34 -6 15 -7 -48 -18 -31 -15 22 3 39 1 50 -10 48 -7 -2 -11 3 -9 12 14 56 14
60 -5 53 -17 -6 -17 -5 -5 10 19 23 31 21 31 -5 0 -13 4 -18 9 -12 17 17 1 72
-22 77 -12 2 -30 8 -41 12 -17 8 -17 7 -1 -25 11 -21 13 -36 7 -42 -16 -16
-32 0 -32 30 0 24 -4 27 -37 30 -20 1 -40 6 -43 12 -3 5 -12 5 -19 1z"/>
<path d="M3325 3475 c-16 -8 -23 -14 -14 -15 8 0 24 7 35 15 23 18 18 18 -21
0z"/>
<path d="M5362 3425 c0 -16 2 -22 5 -12 2 9 2 23 0 30 -3 6 -5 -1 -5 -18z"/>
<path d="M3226 3421 c-4 -5 23 -35 58 -66 64 -55 107 -72 133 -52 8 6 31 5 60
-2 45 -11 52 -10 108 19 33 17 52 29 43 26 -10 -3 -18 -1 -18 5 0 6 -6 6 -17
1 -19 -10 -44 -5 -54 11 -5 6 -18 6 -39 -1 -26 -9 -35 -9 -47 3 -8 8 -19 13
-24 10 -5 -4 -9 1 -9 10 0 21 -19 9 -30 -19 -8 -20 -9 -20 -9 5 -1 24 -4 26
-36 23 -22 -1 -33 1 -29 8 4 6 -1 8 -15 3 -13 -4 -29 -1 -39 6 -14 11 -15 11
-4 -1 20 -23 14 -35 -8 -15 -11 10 -17 22 -14 26 3 5 3 9 0 9 -3 0 -7 -4 -10
-9z m95 -67 c13 -14 33 -30 44 -34 14 -6 15 -9 5 -9 -9 -1 -33 15 -53 34 -20
19 -33 35 -29 35 5 0 19 -12 33 -26z"/>
<path d="M2940 3380 c-9 -6 -10 -10 -3 -10 6 0 15 5 18 10 8 12 4 12 -15 0z"/>
<path d="M5363 3330 c0 -30 2 -43 4 -27 2 15 2 39 0 55 -2 15 -4 2 -4 -28z"/>
<path d="M7622 3305 c0 -16 2 -22 5 -12 2 9 2 23 0 30 -3 6 -5 -1 -5 -18z"/>
<path d="M5361 3084 c-1 -105 2 -153 9 -149 13 8 13 305 0 305 -5 0 -9 -70 -9
-156z"/>
<path d="M4322 3165 c-19 -41 -16 -85 7 -85 21 0 44 -23 33 -34 -4 -4 2 -14
12 -22 17 -12 17 -14 3 -20 -10 -4 -17 -17 -17 -33 0 -35 8 -43 32 -30 16 8
18 16 12 42 -4 18 -7 41 -6 52 1 16 -1 17 -8 5 -19 -30 -19 -1 -1 53 20 63 15
81 -30 92 -21 5 -27 1 -37 -20z"/>
<path d="M3988 3168 c-31 -11 -36 -26 -12 -35 18 -7 96 26 88 38 -7 12 -42 10
-76 -3z"/>
<path d="M245 3110 c-3 -5 -2 -10 4 -10 5 0 12 -8 14 -17 3 -11 5 -7 6 10 1
27 -12 36 -24 17z"/>
<path d="M3190 3110 c-11 -7 -4 -10 25 -10 29 0 36 3 25 10 -8 5 -19 10 -25
10 -5 0 -17 -5 -25 -10z"/>
<path d="M3523 3093 c9 -2 25 -2 35 0 9 3 1 5 -18 5 -19 0 -27 -2 -17 -5z"/>
<path d="M9417 3068 c-23 -46 -99 -247 -130 -343 -21 -67 -32 -112 -43 -180
-1 -5 -2 -27 -3 -47 0 -21 -5 -38 -11 -38 -14 0 -12 51 6 145 8 44 17 96 20
115 l6 35 -22 -25 c-29 -34 -73 -127 -65 -140 3 -5 3 -16 -2 -22 -28 -45 -32
-83 -18 -187 14 -111 8 -187 -21 -243 -8 -15 -14 -30 -14 -33 0 -7 100 2 133
12 18 5 18 6 -2 24 -12 11 -21 27 -21 35 0 24 29 73 49 84 25 13 94 13 86 0
-3 -5 1 -10 9 -10 12 0 14 14 9 90 -5 72 -3 94 9 108 26 29 40 109 32 185 -6
65 -8 68 -20 46 -13 -24 -13 -23 -14 12 0 19 6 58 14 85 28 95 50 303 35 319
-3 3 -13 -10 -22 -27z"/>
<path d="M233 3062 c-9 -6 -8 -12 6 -24 11 -9 22 -14 25 -11 3 3 12 0 20 -6
10 -9 16 -9 21 -1 9 14 -15 42 -30 36 -7 -2 -17 0 -21 4 -5 5 -15 6 -21 2z"/>
<path d="M1992 3049 c-7 -11 -11 -23 -9 -25 7 -7 29 24 25 36 -2 6 -9 1 -16
-11z"/>
<path d="M4190 3001 c-5 -21 -17 -42 -25 -45 -8 -3 -15 -12 -15 -20 0 -8 -10
-18 -22 -22 -26 -8 -48 -28 -48 -43 0 -18 44 -81 57 -81 9 0 26 46 24 65 -1 3
7 13 17 23 9 10 22 27 27 37 9 15 15 16 32 7 19 -11 24 -8 47 34 l25 45 -26
10 c-14 5 -33 11 -42 12 -9 1 -21 6 -28 10 -8 5 -15 -5 -23 -32z"/>
<path d="M1974 2969 c-3 -6 -1 -16 5 -22 8 -8 11 -5 11 11 0 24 -5 28 -16 11z"/>
<path d="M5360 2905 c0 -8 2 -15 4 -15 2 0 6 7 10 15 3 8 1 15 -4 15 -6 0 -10
-7 -10 -15z"/>
<path d="M4354 2889 c-3 -5 19 -9 48 -9 35 0 48 3 39 9 -18 12 -79 12 -87 0z"/>
<path d="M465 2879 c-4 -6 -5 -12 -2 -15 2 -3 7 2 10 11 7 17 1 20 -8 4z"/>
<path d="M4415 2832 c-5 -4 -11 -15 -13 -24 -4 -24 40 -24 63 -2 13 14 14 19
3 25 -16 11 -40 11 -53 1z"/>
<path d="M5971 2824 c0 -11 3 -14 6 -6 3 7 2 16 -1 19 -3 4 -6 -2 -5 -13z"/>
<path d="M10000 2810 c0 -5 -17 -14 -37 -19 -29 -8 -44 -21 -64 -54 -15 -24
-30 -55 -34 -68 -10 -32 -65 -97 -160 -189 -42 -41 -81 -85 -86 -98 -8 -20
-13 -22 -46 -16 -35 6 -72 36 -73 58 0 5 8 18 18 29 17 20 16 20 -22 14 -38
-6 -56 -20 -56 -44 0 -23 144 -123 178 -123 5 0 8 10 6 23 -3 12 1 29 8 38 14
17 183 102 204 102 7 0 15 6 18 14 3 7 11 13 18 13 8 0 22 10 32 21 19 23 56
121 56 149 0 9 14 43 30 75 31 61 37 85 20 85 -5 0 -10 -4 -10 -10z"/>
<path d="M4795 2800 c5 -9 -15 -15 -37 -11 -5 0 -8 -3 -8 -9 0 -13 20 -13 78
1 69 17 74 29 13 29 -32 0 -50 -4 -46 -10z"/>
<path d="M4070 2730 c19 -13 30 -13 30 0 0 6 -10 10 -22 10 -19 0 -20 -2 -8
-10z"/>
<path d="M7985 2710 c-3 -5 -1 -10 4 -10 6 0 11 5 11 10 0 6 -2 10 -4 10 -3 0
-8 -4 -11 -10z"/>
<path d="M7486 2682 c-4 -18 -5 -36 -2 -39 11 -12 17 5 14 39 l-3 33 -9 -33z"/>
<path d="M8304 2695 c-16 -12 -17 -14 -3 -15 9 0 19 7 23 15 7 19 5 19 -20 0z"/>
<path d="M7934 2693 c-16 -3 -20 -9 -17 -24 3 -10 10 -19 15 -19 6 0 8 7 4 15
-4 11 2 15 20 15 14 0 22 4 19 10 -3 6 -9 9 -13 9 -4 -1 -17 -4 -28 -6z"/>
<path d="M8153 2670 c2 -8 12 -16 23 -17 13 -2 15 -1 4 4 -8 3 -19 11 -23 17
-6 7 -7 6 -4 -4z"/>
<path d="M8968 2663 c7 -3 16 -2 19 1 4 3 -2 6 -13 5 -11 0 -14 -3 -6 -6z"/>
<path d="M8808 2648 c7 -9 21 -14 31 -11 11 3 28 0 38 -6 15 -8 20 -7 20 5 0
8 -10 14 -26 14 -14 0 -37 3 -51 7 -22 6 -23 4 -12 -9z"/>
<path d="M8728 2643 c7 -3 16 -2 19 1 4 3 -2 6 -13 5 -11 0 -14 -3 -6 -6z"/>
<path d="M9013 2634 c16 -9 32 -13 35 -9 9 9 -19 25 -43 24 -16 0 -15 -2 8
-15z"/>
<path d="M9130 2630 c0 -5 5 -10 11 -10 5 0 7 5 4 10 -3 6 -8 10 -11 10 -2 0
-4 -4 -4 -10z"/>
<path d="M8820 2616 c0 -2 7 -9 15 -16 9 -7 15 -8 15 -2 0 5 -7 12 -15 16 -8
3 -15 4 -15 2z"/>
<path d="M9060 2610 c0 -5 5 -10 10 -10 6 0 10 5 10 10 0 6 -4 10 -10 10 -5 0
-10 -4 -10 -10z"/>
<path d="M10452 2599 c-7 -12 -11 -24 -8 -27 6 -6 35 27 36 41 0 14 -15 7 -28
-14z"/>
<path d="M8470 2600 c0 -6 7 -10 15 -10 8 0 15 2 15 4 0 2 -7 6 -15 10 -8 3
-15 1 -15 -4z"/>
<path d="M8905 2590 c3 -5 8 -10 11 -10 2 0 4 5 4 10 0 6 -5 10 -11 10 -5 0
-7 -4 -4 -10z"/>
<path d="M9110 2589 c0 -5 5 -7 10 -4 6 3 10 8 10 11 0 2 -4 4 -10 4 -5 0 -10
-5 -10 -11z"/>
<path d="M9455 2546 c-30 -65 -30 -67 -7 -59 37 14 58 44 54 79 -2 19 -8 34
-13 34 -5 0 -20 -24 -34 -54z"/>
<path d="M8860 2581 c0 -5 5 -13 10 -16 6 -3 10 -2 10 4 0 5 -4 13 -10 16 -5
3 -10 2 -10 -4z"/>
<path d="M9040 2580 c-22 -7 -21 -8 13 -9 20 -1 37 4 37 9 0 11 -14 11 -50 0z"/>
<path d="M8950 2560 c0 -5 14 -10 32 -10 36 0 35 4 -4 14 -17 4 -28 2 -28 -4z"/>
<path d="M9033 2540 c1 -12 8 -20 19 -20 11 0 15 -5 12 -15 -4 -11 0 -15 16
-15 16 0 20 4 16 16 -3 9 -6 24 -6 35 0 14 -7 19 -29 19 -24 0 -29 -4 -28 -20z"/>
<path d="M8856 2533 c-6 -14 -5 -15 5 -6 7 7 10 15 7 18 -3 3 -9 -2 -12 -12z"/>
<path d="M10390 2536 c-14 -7 -43 -22 -65 -33 -22 -11 -58 -30 -80 -43 -43
-24 -322 -299 -289 -285 59 25 213 74 234 75 35 0 70 11 70 21 0 4 -16 5 -35
2 -28 -5 -35 -2 -35 11 0 44 72 122 134 146 15 5 26 14 26 20 0 6 13 23 28 38
59 57 64 76 12 48z"/>
<path d="M8844 2478 c3 -13 6 -26 6 -30 0 -15 17 -8 17 7 0 8 -4 15 -8 15 -5
0 -6 7 -3 15 4 8 1 15 -6 15 -8 0 -10 -8 -6 -22z"/>
<path d="M8998 2473 c7 -3 16 -2 19 1 4 3 -2 6 -13 5 -11 0 -14 -3 -6 -6z"/>
<path d="M9030 2469 c0 -5 5 -7 10 -4 6 3 10 8 10 11 0 2 -4 4 -10 4 -5 0 -10
-5 -10 -11z"/>
<path d="M6015 2419 c-41 -16 -67 -18 -140 -15 -49 3 -119 1 -155 -3 -64 -8
-63 -8 50 -12 179 -6 223 -3 278 21 l51 22 70 -21 c91 -28 134 -27 73 0 -63
29 -164 33 -227 8z"/>
<path d="M8865 2420 c3 -5 8 -10 11 -10 2 0 4 5 4 10 0 6 -5 10 -11 10 -5 0
-7 -4 -4 -10z"/>
<path d="M305 2400 c-3 -5 1 -10 10 -10 9 0 13 5 10 10 -3 6 -8 10 -10 10 -2
0 -7 -4 -10 -10z"/>
<path d="M810 2400 c0 -5 5 -10 11 -10 5 0 7 5 4 10 -3 6 -8 10 -11 10 -2 0
-4 -4 -4 -10z"/>
<path d="M9008 2403 c6 -2 18 -2 25 0 6 3 1 5 -13 5 -14 0 -19 -2 -12 -5z"/>
<path d="M764 2359 c-3 -6 -14 -9 -24 -6 -13 3 -16 0 -13 -14 3 -11 8 -19 12
-19 7 1 44 50 37 50 -3 0 -8 -5 -12 -11z"/>
<path d="M9746 2289 c-10 -6 -34 -9 -53 -6 l-34 6 23 -19 c18 -15 21 -22 12
-36 -5 -9 -17 -18 -25 -20 -168 -31 -167 -31 -179 -55 -32 -60 121 -97 242
-58 33 10 69 19 79 19 19 0 89 56 89 71 0 5 -7 9 -15 9 -7 0 -19 8 -24 18 -6
9 -11 13 -11 8 0 -5 -14 10 -30 32 -31 44 -43 48 -74 31z"/>
<path d="M7189 2263 c-13 -16 -12 -17 4 -4 16 13 21 21 13 21 -2 0 -10 -8 -17
-17z"/>
<path d="M9053 2254 c10 -11 -39 -44 -90 -61 -27 -9 -61 -25 -78 -35 l-30 -18
33 0 c38 0 43 -21 11 -48 -68 -55 -60 -66 50 -61 77 4 82 6 116 40 30 30 37
45 42 91 5 48 3 58 -16 77 -11 11 -26 21 -33 21 -6 0 -8 -3 -5 -6z"/>
<path d="M7531 2183 c0 -4 4 -17 9 -28 8 -19 9 -19 9 2 1 12 -3 25 -9 28 -5 3
-10 3 -9 -2z"/>
<path d="M8130 2166 c0 -2 7 -6 15 -10 8 -3 15 -1 15 4 0 6 -7 10 -15 10 -8 0
-15 -2 -15 -4z"/>
<path d="M7620 2125 c0 -8 4 -15 10 -15 5 0 7 7 4 15 -4 8 -8 15 -10 15 -2 0
-4 -7 -4 -15z"/>
<path d="M7930 2109 c0 -6 7 -9 15 -5 8 3 15 1 15 -5 0 -6 5 -7 10 -4 6 4 8
11 5 16 -9 13 -45 11 -45 -2z"/>
<path d="M8195 2080 c3 -5 10 -10 16 -10 5 0 9 5 9 10 0 6 -7 10 -16 10 -8 0
-12 -4 -9 -10z"/>
<path d="M8240 2081 c0 -5 11 -11 25 -13 20 -4 23 -3 14 8 -13 16 -39 19 -39
5z"/>
<path d="M9154 2080 c-22 -9 -37 -34 -27 -44 10 -10 45 -7 86 8 l38 13 -25 16
c-28 19 -41 20 -72 7z"/>
<path d="M9248 2083 c7 -3 16 -2 19 1 4 3 -2 6 -13 5 -11 0 -14 -3 -6 -6z"/>
<path d="M9410 2079 c0 -5 5 -7 10 -4 6 3 10 8 10 11 0 2 -4 4 -10 4 -5 0 -10
-5 -10 -11z"/>
<path d="M6571 2064 c0 -11 3 -14 6 -6 3 7 2 16 -1 19 -3 4 -6 -2 -5 -13z"/>
<path d="M7787 2049 c4 -13 8 -18 11 -10 2 7 -1 18 -6 23 -8 8 -9 4 -5 -13z"/>
<path d="M7917 2026 c-4 -10 -1 -13 8 -9 8 3 12 9 9 14 -7 12 -11 11 -17 -5z"/>
<path d="M7955 2030 c-6 -10 1 -15 38 -24 15 -3 27 -3 27 2 0 11 -59 32 -65
22z"/>
<path d="M8038 2024 c-9 -14 7 -50 16 -36 4 7 3 19 -2 28 -5 9 -12 13 -14 8z"/>
<path d="M1081 1925 c0 -5 6 -21 14 -35 8 -14 14 -20 14 -15 0 6 -6 21 -14 35
-8 14 -14 21 -14 15z"/>
<path d="M1150 1603 c0 -4 19 -28 42 -53 22 -25 34 -36 27 -25 -23 34 -69 86
-69 78z"/>
<path d="M5520 1570 c0 -5 5 -10 10 -10 6 0 10 5 10 10 0 6 -4 10 -10 10 -5 0
-10 -4 -10 -10z"/>
<path d="M5958 1563 c7 -3 16 -2 19 1 4 3 -2 6 -13 5 -11 0 -14 -3 -6 -6z"/>
<path d="M6238 1523 c7 -3 16 -2 19 1 4 3 -2 6 -13 5 -11 0 -14 -3 -6 -6z"/>
<path d="M6407 1517 c-3 -9 -17 -17 -29 -18 -21 0 -22 -1 -3 -8 22 -9 49 11
43 31 -3 7 -7 5 -11 -5z"/>
<path d="M5322 1480 c-14 -24 -32 -26 -32 -5 0 11 -11 15 -42 14 -24 0 -37 -3
-30 -6 6 -2 12 -11 12 -19 0 -7 6 -11 13 -8 7 2 21 -3 32 -12 11 -8 13 -12 5
-8 -8 4 -11 3 -7 -1 11 -13 36 -17 95 -15 40 1 52 -2 47 -11 -5 -7 -3 -10 6
-7 8 3 13 12 11 19 -3 11 -1 12 9 2 22 -22 39 -15 39 17 0 28 -2 30 -39 30
-22 0 -44 6 -51 15 -18 21 -53 19 -68 -5z"/>
<path d="M1302 1434 c10 -10 20 -16 22 -13 3 3 -5 11 -17 18 -21 13 -21 12 -5
-5z"/>
<path d="M1076 1365 c-4 -11 2 -15 22 -15 20 0 23 3 13 9 -11 7 -9 10 10 14
20 4 19 5 -7 6 -20 0 -34 -5 -38 -14z"/>
<path d="M5415 1370 c-3 -5 -2 -10 4 -10 5 0 13 5 16 10 3 6 2 10 -4 10 -5 0
-13 -4 -16 -10z"/>
<path d="M6498 1353 c-3 -40 -6 -49 -17 -76 -19 -47 -34 -116 -28 -130 5 -13
65 -32 74 -23 5 4 53 198 53 213 0 6 -10 15 -22 18 -13 4 -31 9 -40 11 -12 4
-19 -1 -20 -13z"/>
<path d="M6667 1322 c-7 -10 -15 -72 -24 -169 l-6 -71 39 -11 c50 -13 88 -17
93 -11 2 3 1 60 -3 127 -8 121 -8 121 -34 128 -15 3 -34 8 -44 11 -9 3 -19 1
-21 -4z"/>
<path d="M5460 1310 c-12 -7 -12 -12 -3 -21 15 -15 26 -7 21 15 -2 11 -7 13
-18 6z"/>
<path d="M5310 1301 c0 -5 4 -12 9 -16 13 -7 92 6 86 14 -6 11 -95 13 -95 2z"/>
<path d="M6961 1306 c2 -2 18 -6 34 -10 22 -5 26 -4 15 4 -14 9 -59 15 -49 6z"/>
<path d="M7090 1271 c30 -11 59 -16 64 -11 9 9 -11 16 -74 24 l-45 6 55 -19z"/>
<path d="M3685 1250 c4 -6 11 -8 16 -5 14 9 11 15 -7 15 -8 0 -12 -5 -9 -10z"/>
<path d="M6955 1162 c10 -158 17 -175 74 -166 46 8 57 14 40 25 -10 6 -10 9
-2 9 6 0 15 -4 18 -10 3 -5 17 -10 31 -10 14 0 32 -7 41 -16 9 -8 22 -13 29
-10 8 3 14 1 14 -5 0 -6 4 -8 9 -4 6 3 28 3 50 -1 35 -6 38 -8 25 -21 -15 -15
-11 -33 8 -33 5 0 8 7 4 15 -4 12 3 15 29 15 24 0 35 5 38 18 4 15 5 15 6 -1
1 -25 25 -16 29 11 4 27 42 31 42 5 0 -14 4 -12 17 7 10 14 17 29 15 33 -1 5
7 5 19 2 15 -5 20 -3 17 6 -6 19 -53 23 -105 9 -40 -12 -47 -11 -100 16 -44
22 -66 41 -90 79 -48 72 -48 73 -99 81 -26 4 -74 15 -106 25 l-59 18 6 -97z"/>
<path d="M1323 1173 l-1 -68 8 55 c4 30 4 61 1 68 -4 6 -7 -18 -8 -55z"/>
<path d="M1553 1190 c0 -30 2 -43 4 -27 2 15 2 39 0 55 -2 15 -4 2 -4 -28z"/>
<path d="M5299 1216 c-31 -7 -61 -10 -68 -8 -13 4 -15 -34 -2 -42 5 -3 26 -8
47 -12 20 -3 48 -10 61 -15 42 -16 61 -11 71 19 l10 27 16 -37 c14 -32 41 -58
60 -58 11 0 6 49 -6 62 -7 8 -21 27 -30 43 -14 26 -23 30 -60 31 -24 1 -68 -4
-99 -10z"/>
<path d="M5111 1210 c-14 -8 30 -30 59 -30 22 0 28 29 8 31 -7 1 -23 3 -35 4
-12 1 -26 -1 -32 -5z"/>
<path d="M3734 1122 c-8 -7 -14 -19 -14 -25 0 -13 20 -47 20 -35 0 10 62 -12
82 -29 14 -13 17 -10 23 26 11 65 2 78 -52 77 -25 0 -52 -6 -59 -14z"/>
<path d="M2198 1122 c-42 -4 -50 -19 -15 -27 l22 -6 -5 -522 c-3 -287 -3 -532
-1 -544 6 -42 21 -23 21 27 0 58 17 68 23 13 4 -37 4 -37 6 7 1 25 6 63 10 85
9 39 9 39 10 -20 2 -56 16 -146 21 -135 1 3 6 54 10 115 l7 110 2 -95 c2 -121
8 -130 89 -130 l61 0 3 53 3 52 50 2 50 1 -40 -8 c-22 -4 -43 -6 -47 -3 -5 2
-8 -1 -8 -7 0 -8 13 -10 40 -5 43 7 84 -1 75 -16 -3 -5 1 -6 10 -3 8 4 35 3
60 0 42 -7 45 -9 45 -37 0 -22 5 -29 20 -29 24 0 26 13 5 30 -8 7 -14 18 -14
24 1 6 -3 24 -9 39 -7 16 -12 33 -12 38 0 5 -4 9 -9 9 -5 0 -14 14 -20 30 -5
17 -16 29 -22 28 -7 -2 -17 13 -23 33 -11 34 -12 35 -44 27 -42 -11 -112 -7
-115 7 -1 6 26 14 61 18 40 6 62 13 59 20 -6 19 -49 37 -90 37 -40 0 -49 22
-11 28 41 7 45 11 34 32 -9 16 -19 20 -43 18 l-32 -3 -3 -74 c-3 -88 -12 -109
-12 -30 0 55 0 55 -40 73 -22 9 -44 15 -50 11 -5 -3 -10 -1 -10 4 0 6 4 11 10
11 5 0 7 7 4 15 -8 21 6 19 22 -2 12 -16 12 -16 7 5 -3 12 -12 22 -19 22 -8 0
-14 5 -14 11 0 5 -5 7 -11 3 -11 -7 -8 10 12 64 8 21 13 23 49 17 23 -4 40 -3
40 3 0 9 -29 50 -62 86 -10 11 -18 26 -18 33 0 8 -4 12 -9 8 -13 -8 -31 27
-31 60 0 17 -5 25 -12 23 -8 -3 -15 -30 -18 -69 l-5 -64 -7 55 c-5 30 -7 118
-5 195 2 77 0 155 -4 173 -4 17 -3 32 1 32 4 0 10 7 14 15 7 20 -20 31 -66 27z
m59 -814 c-3 -8 -6 -5 -6 6 -1 11 2 17 5 13 3 -3 4 -12 1 -19z m317 -135 c-4
-16 -7 -29 -8 -30 -1 0 -26 -3 -56 -5 -53 -3 -55 -2 -55 22 -1 38 2 40 66 40
l59 0 -6 -27z"/>
<path d="M6435 1108 c-2 -7 -11 -38 -20 -68 -35 -115 -78 -229 -85 -225 -15
10 -266 8 -284 -2 -16 -9 -7 -12 50 -22 90 -15 194 -50 200 -66 3 -8 1 -23 -6
-34 -8 -16 -20 -21 -55 -21 -24 0 -56 5 -72 11 -15 6 -49 11 -75 10 -32 0 -52
5 -64 17 -13 12 -19 13 -22 4 -2 -6 -17 -12 -33 -12 -52 0 -69 -16 -69 -63 -1
-35 -2 -39 -11 -23 -6 10 -11 46 -12 80 0 60 -1 62 -49 108 -45 42 -53 46 -85
41 -26 -4 -34 -3 -29 5 4 7 14 12 22 12 9 0 12 5 8 11 -3 6 -19 9 -34 6 -15
-3 -32 -1 -37 4 -10 10 -2 -31 22 -122 5 -22 3 -27 -17 -33 -13 -3 -36 -6 -51
-6 -16 0 -26 -3 -24 -7 3 -5 -24 -6 -59 -5 -42 3 -64 0 -64 -7 0 -13 -38 -8
-72 10 -22 12 53 -81 107 -133 33 -31 31 -41 -5 -36 -18 3 -35 -1 -41 -9 -6
-7 -24 -13 -40 -13 -23 0 -30 5 -35 27 -10 47 -12 49 -19 16 -4 -18 -13 -37
-20 -43 -6 -5 -94 -12 -196 -15 -101 -2 -244 -7 -317 -11 -100 -5 -136 -3
-148 7 -21 17 -79 22 -118 10 -26 -8 -144 -12 -405 -12 -25 0 -51 -4 -59 -8
-9 -5 -29 -5 -47 0 -17 5 -72 11 -121 14 -49 2 -92 4 -96 5 -5 0 -8 14 -8 30
0 22 6 33 23 40 15 6 17 9 5 9 -21 1 -27 20 -16 52 7 20 15 26 33 23 16 -1 25
3 25 12 0 10 -9 14 -27 12 l-28 -3 -3 120 c-1 66 -4 126 -7 133 -4 11 -27 12
-118 7 -61 -5 -119 -7 -127 -5 -17 2 -80 1 -310 -4 -85 -2 -195 -4 -245 -5
-73 -1 -87 -4 -74 -14 10 -7 18 -35 22 -72 5 -52 10 -63 39 -86 18 -15 48 -30
66 -33 43 -7 62 -22 62 -52 0 -20 8 -26 47 -35 27 -7 63 -27 85 -47 45 -41 74
-43 117 -11 44 32 72 72 105 149 16 36 32 69 36 73 4 5 5 -53 2 -127 -4 -121
-3 -136 12 -136 19 0 21 -16 4 -27 -7 -4 -20 -21 -28 -37 -15 -28 -17 -28
-118 -33 -63 -3 -107 -1 -115 5 -8 7 -83 11 -192 11 -194 0 -225 -7 -225 -51
0 -22 101 -128 121 -128 6 0 15 13 20 29 8 22 21 33 53 44 40 14 47 13 83 -3
22 -10 52 -16 65 -13 35 7 40 -6 25 -66 -9 -41 -17 -53 -35 -58 -14 -3 -21
-11 -18 -18 3 -8 -2 -16 -10 -19 -11 -4 -14 -20 -13 -59 1 -30 -1 -59 -5 -65
-3 -6 5 -20 20 -31 27 -21 82 -23 106 -3 17 13 74 10 90 -6 9 -9 73 -12 241
-12 212 0 228 1 225 18 -2 9 -9 16 -14 15 -14 -2 -1 84 14 99 19 19 50 -19 63
-79 l13 -56 170 8 c94 3 203 8 241 10 39 2 167 7 285 10 118 3 296 10 395 15
327 17 662 22 683 11 14 -7 41 -8 81 -3 41 6 62 5 65 -2 6 -15 10 38 7 106 -2
32 0 85 4 119 l7 61 37 -6 c80 -14 87 -17 87 -34 0 -79 5 -164 9 -160 3 3 9
38 14 79 l9 74 0 -100 c0 -123 0 -127 11 -121 5 3 12 -4 15 -17 l6 -22 15 25
c10 18 14 20 15 8 0 -23 20 -34 31 -17 8 12 10 12 18 0 8 -12 11 -8 16 15 10
45 13 51 14 28 1 -17 7 -21 31 -20 16 1 30 4 30 8 0 5 119 15 245 19 17 1 71
-4 120 -11 50 -6 120 -13 157 -14 l66 -3 -19 27 c-22 29 -38 122 -39 217 0 53
2 61 18 58 9 -2 24 -4 33 -4 11 -1 24 -23 38 -61 18 -48 26 -60 39 -56 13 5
28 -15 66 -87 49 -92 49 -92 89 -93 24 -1 34 2 26 7 -9 5 -3 8 16 7 84 0 377
23 402 33 16 6 109 12 218 13 121 2 226 9 289 19 55 9 123 17 153 17 29 0 53
4 53 10 0 15 -40 37 -90 50 -25 6 -55 18 -68 26 -12 8 -50 25 -84 37 -58 20
-63 25 -73 61 -6 22 -18 43 -26 47 -58 27 -145 29 -135 3 5 -12 -1 -14 -29 -8
-31 5 -35 4 -35 -15 0 -26 -21 -27 -45 -1 -12 13 -27 18 -47 16 -59 -7 -58 71
2 114 22 16 56 22 166 30 77 5 182 14 234 20 114 11 197 17 390 25 80 4 208
10 285 14 163 9 178 4 169 -58 -6 -40 -34 -68 -76 -77 -27 -6 -27 -7 -10 -30
9 -13 21 -24 25 -24 12 0 37 -27 37 -39 0 -5 4 -13 10 -16 6 -4 7 1 3 11 -5
14 -2 16 17 11 26 -7 83 23 98 50 14 24 124 35 145 14 6 -6 13 -27 16 -48 7
-40 25 -55 87 -67 l30 -7 -4 59 c-4 51 -1 63 17 81 18 18 29 20 75 15 34 -4
68 -2 92 7 22 7 56 14 78 15 21 1 43 8 48 16 9 13 5 70 -7 99 -9 24 18 46 67
54 57 10 68 20 68 66 0 45 -5 47 -116 54 -43 2 -97 11 -119 19 -52 19 -84 20
-91 1 -9 -22 -19 -18 -33 12 -14 31 -28 21 -33 -22 l-3 -30 -97 3 c-59 2 -99
-1 -103 -8 -4 -6 -55 -10 -130 -10 -99 0 -124 3 -128 15 -5 11 -21 14 -69 11
-35 -1 -69 2 -77 8 -11 8 -13 8 -8 0 4 -7 -3 -14 -20 -17 -21 -4 -32 2 -52 26
-14 17 -38 43 -52 58 -15 16 -24 31 -21 34 3 3 -7 5 -23 5 l-28 0 27 -26 c15
-16 26 -37 25 -53 0 -14 -3 -20 -6 -13 -2 7 -22 12 -44 12 -22 0 -54 6 -72 13
-18 8 -37 12 -43 10 -6 -2 -37 4 -70 13 -106 29 -146 32 -264 19 -63 -7 -155
-16 -203 -19 -49 -3 -93 -9 -99 -12 -5 -3 0 -17 14 -31 17 -18 30 -23 53 -20
20 3 40 -2 59 -16 21 -15 31 -17 34 -9 7 23 48 11 86 -25 l39 -38 -31 -3 c-17
-2 -54 7 -82 19 -28 12 -53 19 -57 16 -3 -4 -17 3 -31 13 -13 11 -38 20 -53
20 -23 0 -29 -5 -30 -22 0 -13 -3 -17 -6 -11 -2 7 -4 15 -3 19 1 3 -11 16 -26
29 -17 15 -25 29 -21 39 4 10 1 16 -9 16 -8 0 -14 -6 -13 -12 1 -7 1 -19 0
-27 -2 -20 -31 6 -31 28 -1 13 -3 13 -16 -4 -10 -13 -14 -32 -10 -52 2 -18 1
-33 -5 -33 -5 0 -9 15 -9 34 0 35 -15 46 -67 46 -26 0 -34 -11 -40 -59 -7 -55
-23 -65 -111 -68 -42 -2 -90 -4 -107 -6 -33 -2 -32 -5 -16 86 l8 47 -37 0
c-21 0 -58 3 -84 6 -45 7 -46 6 -47 -22 0 -16 -8 -49 -18 -74 -18 -44 -19 -45
-67 -46 -62 -2 -94 -8 -120 -22 -28 -15 -34 -7 -21 28 10 25 8 34 -12 60 -21
30 -22 34 -11 108 7 42 16 82 21 88 5 6 2 25 -8 45 -11 26 -28 41 -65 57 -92
41 -96 41 -103 -15 -3 -26 -16 -100 -28 -163 -19 -100 -25 -115 -43 -118 -23
-3 -154 53 -154 66 0 17 49 148 79 212 17 36 31 70 31 77 0 6 -14 16 -31 22
-40 14 -39 14 -44 -1z m-2941 -314 c9 -3 16 -14 15 -23 0 -12 -2 -12 -6 -2 -5
11 -7 11 -15 0 -8 -12 -10 -12 -15 0 -4 9 -7 10 -13 2 -7 -12 -40 -5 -40 9 0
5 12 11 28 13 15 2 28 5 29 6 1 0 8 -2 17 -5z m3194 -136 c23 -20 6 -18 -34 3
-35 18 -36 19 -9 14 16 -4 36 -11 43 -17z m-137 -10 c-4 -12 -14 -22 -22 -23
-8 -1 -45 -6 -84 -10 l-70 -7 19 21 c14 15 31 21 65 21 25 0 53 5 61 10 26 17
40 12 31 -12z m-365 -15 c-7 -7 -26 7 -26 19 0 6 6 6 15 -2 9 -7 13 -15 11
-17z m74 -214 c0 -18 -13 -25 -35 -18 -9 3 -39 4 -148 8 -71 2 -27 21 51 22
42 0 86 4 97 8 25 11 35 5 35 -20z m-623 -25 c2 -7 -4 -19 -13 -29 -11 -11
-14 -19 -6 -23 7 -5 6 -13 -4 -26 -13 -18 -14 -16 -14 22 0 31 -4 42 -15 42
-21 0 -19 17 3 23 26 7 45 3 49 -9z m-1988 -29 c40 -38 -37 -61 -199 -59 -127
2 -140 3 -151 10 -17 10 11 34 40 34 15 0 32 5 39 12 28 28 242 30 271 3z
m1653 -20 l-4 -45 -44 0 c-24 0 -44 5 -44 10 0 11 -33 8 -65 -6 -11 -4 -67 -8
-125 -8 -118 1 -151 4 -132 11 24 9 12 23 -20 23 -18 1 -46 8 -63 16 -16 8
-22 12 -12 9 11 -3 44 1 75 9 38 10 117 15 231 15 96 1 177 3 179 6 17 17 27
0 24 -40z m295 -61 c-3 -3 -12 -4 -19 -1 -8 3 -5 6 6 6 11 1 17 -2 13 -5z
m570 -96 c-2 -13 -4 -5 -4 17 -1 22 1 32 4 23 2 -10 2 -28 0 -40z m-2614 -5
c-7 -2 -19 -2 -25 0 -7 3 -2 5 12 5 14 0 19 -2 13 -5z m3502 -23 c-12 -19 25
-22 53 -5 l27 18 -29 -32 c-39 -41 -66 -41 -66 -1 0 17 5 30 11 30 5 0 7 -5 4
-10z m-3715 -94 c0 -11 -19 -15 -25 -6 -3 5 1 10 9 10 9 0 16 -2 16 -4z m127
-42 c-3 -3 -12 -4 -19 -1 -8 3 -5 6 6 6 11 1 17 -2 13 -5z"/>
<path d="M4960 319 c0 -5 5 -7 10 -4 6 3 10 8 10 11 0 2 -4 4 -10 4 -5 0 -10
-5 -10 -11z"/>
<path d="M7625 1075 c-5 -2 -27 -6 -48 -10 -21 -3 -35 -10 -32 -16 4 -5 -1 -9
-9 -9 -9 0 -16 -9 -16 -20 0 -15 7 -20 24 -20 14 0 28 5 32 12 10 16 24 -25
17 -51 -4 -17 -8 -19 -19 -10 -17 14 -18 5 -3 -22 6 -12 17 -18 25 -15 8 3 12
2 9 -3 -5 -10 -94 -24 -152 -25 -45 -1 -54 -16 -9 -16 21 0 46 -5 57 -10 10
-6 19 -7 19 -3 0 5 57 8 128 7 135 -2 342 13 354 24 7 7 -34 31 -114 66 -29
13 -35 20 -31 37 4 15 2 20 -7 17 -14 -4 -50 25 -50 40 0 4 -17 12 -37 19 -29
9 -40 9 -45 0 -4 -7 -8 -7 -8 -2 0 10 -64 17 -85 10z"/>
<path d="M1553 1010 c0 -30 2 -43 4 -27 2 15 2 39 0 55 -2 15 -4 2 -4 -28z"/>
<path d="M4135 1040 c3 -5 14 -10 23 -10 15 0 15 2 2 10 -20 13 -33 13 -25 0z"/>
<path d="M4524 1019 c-4 -6 -21 -8 -43 -5 -26 4 -30 3 -16 -4 28 -12 115 -12
115 1 0 5 -4 7 -10 4 -5 -3 -10 -1 -10 4 0 14 -27 14 -36 0z"/>
<path d="M5600 985 c19 -19 36 -35 39 -35 3 0 -10 16 -29 35 -19 19 -36 35
-39 35 -3 0 10 -16 29 -35z"/>
<path d="M5322 1000 c-13 -5 -21 -14 -17 -20 8 -13 71 -24 87 -14 7 4 29 7 48
5 32 -2 34 -1 19 13 -19 20 -105 30 -137 16z"/>
<path d="M2362 980 c0 -14 2 -19 5 -12 2 6 2 18 0 25 -3 6 -5 1 -5 -13z"/>
<path d="M7880 991 c0 -6 5 -13 10 -16 6 -3 10 1 10 9 0 9 -4 16 -10 16 -5 0
-10 -4 -10 -9z"/>
<path d="M4843 983 c9 -2 23 -2 30 0 6 3 -1 5 -18 5 -16 0 -22 -2 -12 -5z"/>
<path d="M4587 973 c-4 -3 -7 -13 -7 -20 0 -11 8 -13 33 -7 17 4 38 7 45 7 17
0 15 14 -4 21 -21 8 -59 8 -67 -1z"/>
<path d="M2340 940 c0 -28 56 -103 71 -95 12 8 12 55 0 55 -6 0 -24 15 -40 33
l-31 32 0 -25z"/>
<path d="M7232 949 c2 -6 8 -10 13 -10 5 0 11 4 13 10 2 6 -4 11 -13 11 -9 0
-15 -5 -13 -11z"/>
<path d="M7320 931 c0 -5 9 -7 20 -4 11 3 20 7 20 9 0 2 -9 4 -20 4 -11 0 -20
-4 -20 -9z"/>
<path d="M1536 911 c-4 -5 -2 -20 3 -33 9 -21 10 -21 10 10 1 32 -3 39 -13 23z"/>
<path d="M7053 913 c4 -6 20 -16 37 -23 16 -7 27 -16 24 -21 -3 -5 1 -9 8 -10
7 0 24 -3 38 -5 53 -8 200 -16 200 -11 0 9 -93 35 -185 52 -44 8 -91 17 -104
21 -16 5 -22 3 -18 -3z"/>
<path d="M1778 901 c-69 -6 -96 -20 -83 -41 6 -10 55 -11 209 -5 111 4 204 9
209 12 4 2 7 13 7 24 0 18 -8 19 -137 17 -76 0 -168 -4 -205 -7z"/>
<path d="M1470 865 c0 -8 5 -15 10 -15 6 0 10 7 10 15 0 8 -4 15 -10 15 -5 0
-10 -7 -10 -15z"/>
<path d="M1371 815 c-2 -89 12 -246 21 -237 5 5 4 39 -2 80 -5 39 -8 77 -5 84
2 7 0 38 -4 68 l-9 55 -1 -50z"/>
<path d="M5432 850 c-39 -9 -38 -8 -46 -40 -3 -14 -3 -20 0 -13 4 10 10 10 27
0 12 -7 24 -15 27 -18 13 -14 46 -19 74 -10 17 5 53 12 81 16 l50 7 -30 15
c-17 9 -41 24 -54 34 -25 20 -71 23 -129 9z"/>
<path d="M1855 820 c-182 -9 -165 -6 -165 -30 0 -19 7 -20 93 -20 52 0 149 3
215 7 119 6 122 7 122 30 0 26 15 25 -265 13z"/>
<path d="M8613 816 c1 -11 9 -21 17 -23 10 -3 11 -2 4 4 -6 4 -14 15 -17 23
-5 11 -6 9 -4 -4z"/>
<path d="M1597 813 c-4 -3 -7 -19 -7 -34 0 -25 3 -28 23 -20 12 4 28 6 35 4 7
-3 12 5 12 20 0 17 -7 27 -22 31 -29 7 -33 7 -41 -1z"/>
<path d="M4574 805 c-10 -24 4 -62 22 -62 9 0 19 9 22 19 2 10 8 18 13 18 5 0
9 8 9 17 0 9 -3 14 -6 10 -3 -3 -17 -2 -30 4 -19 7 -26 5 -30 -6z"/>
<path d="M1542 785 c0 -16 2 -22 5 -12 2 9 2 23 0 30 -3 6 -5 -1 -5 -18z"/>
<path d="M2561 783 c-1 -30 -4 -33 -31 -33 -16 0 -30 -4 -30 -10 0 -20 25 -62
61 -101 29 -32 42 -39 59 -34 21 7 21 7 -4 40 -23 29 -39 77 -49 145 -4 20 -5
19 -6 -7z"/>
<path d="M5970 789 c0 -5 5 -7 10 -4 6 3 10 8 10 11 0 2 -4 4 -10 4 -5 0 -10
-5 -10 -11z"/>
<path d="M1470 775 c0 -8 5 -15 10 -15 6 0 10 7 10 15 0 8 -4 15 -10 15 -5 0
-10 -7 -10 -15z"/>
<path d="M5408 773 c7 -3 16 -2 19 1 4 3 -2 6 -13 5 -11 0 -14 -3 -6 -6z"/>
<path d="M1763 732 c-70 -3 -73 -4 -73 -28 l0 -25 193 6 c228 7 237 9 237 36
0 20 -4 20 -142 17 -79 -2 -176 -4 -215 -6z"/>
<path d="M5895 730 c3 -5 8 -10 11 -10 2 0 4 5 4 10 0 6 -5 10 -11 10 -5 0 -7
-4 -4 -10z"/>
<path d="M1594 719 c-3 -6 -3 -22 1 -36 4 -19 9 -23 18 -14 6 6 19 11 29 11
12 0 18 7 18 23 0 17 -6 22 -30 24 -16 1 -32 -2 -36 -8z"/>
<path d="M1536 712 c-2 -4 -1 -14 5 -22 7 -12 9 -10 9 8 0 23 -5 28 -14 14z"/>
<path d="M1475 700 c-3 -5 -1 -18 4 -27 9 -16 10 -14 11 10 0 28 -5 34 -15 17z"/>
<path d="M3920 680 c0 -6 7 -10 15 -10 8 0 15 2 15 4 0 2 -7 6 -15 10 -8 3
-15 1 -15 -4z"/>
<path d="M4336 672 c-3 -5 -2 -18 1 -30 6 -24 32 -29 51 -10 18 18 15 28 -8
28 -11 0 -20 5 -20 10 0 12 -17 13 -24 2z"/>
<path d="M3970 654 c0 -18 32 -34 69 -34 46 0 37 14 -19 32 -41 13 -50 14 -50
2z"/>
<path d="M1990 654 c-8 -2 -78 -5 -155 -6 l-140 -3 -3 -28 -3 -28 58 5 c32 3
129 8 216 12 l157 6 0 24 c0 23 -3 24 -57 23 -32 -1 -65 -3 -73 -5z"/>
<path d="M4149 653 c-1 -5 -2 -15 -3 -23 0 -9 -9 -14 -19 -12 -13 2 -18 -2
-15 -15 5 -29 44 -28 63 1 19 29 14 56 -10 56 -8 0 -16 -3 -16 -7z"/>
<path d="M1623 643 c-16 -3 -23 -11 -23 -28 0 -25 21 -38 45 -29 15 6 22 65 8
63 -5 -1 -18 -4 -30 -6z"/>
<path d="M1537 625 c-4 -8 -2 -17 3 -20 6 -4 10 3 10 14 0 25 -6 27 -13 6z"/>
<path d="M1480 604 c0 -8 5 -12 10 -9 6 3 10 10 10 16 0 5 -4 9 -10 9 -5 0
-10 -7 -10 -16z"/>
<path d="M2632 572 c-16 -11 84 -123 104 -115 25 9 15 32 -33 78 -50 48 -51
49 -71 37z"/>
<path d="M1767 563 c-78 -4 -78 -4 -75 -30 3 -26 4 -27 68 -24 36 2 76 4 90 6
14 1 80 3 148 3 l122 2 0 25 0 25 -137 -2 c-76 -1 -173 -4 -216 -5z"/>
<path d="M1542 535 c0 -16 2 -22 5 -12 2 9 2 23 0 30 -3 6 -5 -1 -5 -18z"/>
<path d="M1604 551 c-10 -10 -3 -39 11 -45 24 -9 45 4 45 29 0 18 -5 23 -26
21 -14 0 -28 -3 -30 -5z"/>
<path d="M1380 511 c0 -23 5 -41 10 -41 6 0 10 15 10 34 0 19 -4 38 -10 41 -6
4 -10 -10 -10 -34z"/>
<path d="M1480 525 c1 -26 2 -28 11 -12 8 14 8 22 0 30 -8 8 -11 3 -11 -18z"/>
<path d="M1850 480 c-85 -4 -156 -8 -157 -8 -2 -1 -3 -13 -3 -26 0 -25 0 -25
88 -20 48 2 144 7 215 10 126 6 127 6 127 30 0 27 23 26 -270 14z"/>
<path d="M2440 470 c0 -11 -5 -20 -12 -20 -9 0 -9 -3 -1 -11 14 -14 54 18 46
37 -8 21 -33 16 -33 -6z"/>
<path d="M1603 462 c-8 -21 9 -45 35 -49 19 -2 22 2 22 31 0 29 -3 34 -26 34
-14 0 -28 -7 -31 -16z"/>
<path d="M1383 446 c4 -10 7 -45 7 -77 0 -34 4 -58 9 -55 15 10 8 139 -8 144
-10 3 -12 0 -8 -12z"/>
<path d="M1487 440 c3 -11 7 -20 9 -20 2 0 4 9 4 20 0 11 -4 20 -9 20 -5 0 -7
-9 -4 -20z"/>
<path d="M1540 439 c0 -11 5 -17 10 -14 6 3 10 13 10 21 0 8 -4 14 -10 14 -5
0 -10 -9 -10 -21z"/>
<path d="M8486 418 c-18 -10 -21 -34 -6 -43 5 -3 40 -8 77 -11 56 -4 64 -2 48
8 -11 6 -28 19 -38 29 -23 21 -60 29 -81 17z"/>
<path d="M1650 389 c0 -7 -10 -9 -26 -6 -22 4 -25 1 -22 -22 2 -20 9 -27 31
-29 25 -3 27 -1 27 32 0 20 -2 36 -5 36 -3 0 -5 -5 -5 -11z"/>
<path d="M1782 393 l-93 -4 3 -27 c2 -15 8 -26 14 -25 7 1 102 5 213 9 l201 7
0 24 c0 23 0 23 -122 21 -68 -1 -165 -4 -216 -5z"/>
<path d="M1492 355 c0 -16 2 -22 5 -12 2 9 2 23 0 30 -3 6 -5 -1 -5 -18z"/>
<path d="M1540 366 c0 -8 5 -18 10 -21 6 -3 10 3 10 14 0 12 -4 21 -10 21 -5
0 -10 -6 -10 -14z"/>
<path d="M9988 303 c-9 -22 -15 -77 -17 -168 l-3 -135 32 0 c31 0 32 1 26 33
-3 17 -6 79 -7 136 -1 56 -5 117 -9 135 l-7 31 -15 -32z"/>
<path d="M1646 305 c-3 -9 -12 -12 -21 -8 -13 5 -16 0 -13 -23 2 -21 9 -30 26
-32 20 -3 22 1 22 37 0 43 -4 51 -14 26z"/>
<path d="M1840 309 c-74 -3 -138 -7 -142 -8 -5 0 -8 -13 -8 -27 l0 -26 98 6
c53 3 150 8 215 12 115 6 117 6 117 30 0 23 -2 24 -72 22 -40 -1 -134 -5 -208
-9z"/>
<path d="M8780 281 c-11 -39 -4 -78 17 -103 9 -10 17 -48 20 -97 l6 -81 412 0
412 0 7 46 c3 25 3 51 -1 57 -3 5 -6 24 -5 42 2 41 -45 94 -85 97 -48 2 -51 3
-70 20 -15 14 -33 17 -84 13 -36 -2 -76 -8 -90 -13 -13 -5 -38 -7 -56 -5 -28
5 -31 3 -26 -16 3 -12 -2 -32 -11 -46 -15 -23 -21 -24 -114 -25 -53 0 -113 -2
-132 -4 -19 -2 -50 4 -67 12 -32 15 -44 32 -23 32 17 0 5 36 -24 70 -39 47
-73 47 -86 1z"/>
<path d="M8456 279 c-29 -28 -14 -49 36 -49 61 0 76 12 50 40 -26 28 -62 32
-86 9z"/>
<path d="M1403 255 c0 -22 2 -30 4 -17 2 12 2 30 0 40 -3 9 -5 -1 -4 -23z"/>
<path d="M1543 274 c-3 -8 -1 -20 6 -27 8 -8 11 -4 11 16 0 30 -7 35 -17 11z"/>
<path d="M1492 260 c0 -14 2 -19 5 -12 2 6 2 18 0 25 -3 6 -5 1 -5 -13z"/>
<path d="M9010 235 c0 -17 26 -30 59 -30 39 1 35 21 -7 33 -50 15 -52 15 -52
-3z"/>
<path d="M1955 230 c-82 -4 -176 -8 -207 -9 -55 -1 -58 -2 -58 -26 0 -32 -9
-32 247 -20 139 6 183 11 187 21 6 16 -3 45 -13 42 -3 -1 -73 -5 -156 -8z"/>
<path d="M10264 228 c-4 -7 -10 -61 -12 -120 l-5 -108 27 0 c22 0 26 4 26 29
0 16 -5 31 -12 33 -8 3 -9 15 -2 44 5 21 8 60 6 87 -3 46 -13 59 -28 35z"/>
<path d="M1627 213 c-26 -7 -18 -47 11 -51 19 -3 22 1 22 27 0 17 -3 30 -7 30
-5 -1 -16 -3 -26 -6z"/>
<path d="M1402 166 c1 -19 6 -32 10 -30 12 8 10 64 -2 64 -6 0 -10 -15 -8 -34z"/>
<path d="M1540 186 c0 -8 5 -18 10 -21 6 -3 10 3 10 14 0 12 -4 21 -10 21 -5
0 -10 -6 -10 -14z"/>
<path d="M10912 135 c0 -16 2 -22 5 -12 2 9 2 23 0 30 -3 6 -5 -1 -5 -18z"/>
<path d="M10703 105 c-18 -39 -9 -61 13 -31 13 19 20 66 9 66 -3 0 -13 -16
-22 -35z"/>
<path d="M1740 113 c0 -7 -11 -13 -25 -13 -36 0 -33 -30 3 -31 15 -1 31 -1 35
0 5 1 79 5 165 10 110 5 159 4 164 -3 5 -8 8 -8 8 0 0 7 10 14 22 18 15 3 19
9 13 15 -6 6 -78 7 -190 2 -129 -6 -182 -5 -187 3 -6 8 -8 7 -8 -1z"/>
<path d="M1600 94 c0 -15 35 -28 50 -19 19 11 10 23 -20 27 -20 3 -30 0 -30
-8z"/>
<path d="M1212 83 c-91 -3 -103 -6 -100 -21 3 -15 15 -17 98 -14 132 4 264 12
269 18 17 16 -90 23 -267 17z"/>
<path d="M2548 73 c7 -3 16 -2 19 1 4 3 -2 6 -13 5 -11 0 -14 -3 -6 -6z"/>
<path d="M7110 62 c0 -8 -5 -9 -165 -22 -429 -34 -428 -35 79 -38 259 -1 474
2 478 6 5 5 0 20 -11 33 -22 27 -57 30 -234 17 -56 -4 -108 -3 -122 2 -14 5
-25 6 -25 2z"/>
<path d="M10121 38 c-1 -28 3 -38 15 -38 8 0 12 5 9 11 -4 6 -11 23 -15 37 -8
25 -8 24 -9 -10z"/>
<path d="M10902 40 c0 -14 2 -19 5 -12 2 6 2 18 0 25 -3 6 -5 1 -5 -13z"/>
<path d="M11036 44 c-13 -33 -6 -44 24 -44 27 0 30 3 30 30 0 25 -4 30 -24 30
-13 0 -27 -7 -30 -16z"/>
<path d="M10683 33 c-3 -10 -8 -21 -10 -25 -2 -5 8 -8 22 -8 21 0 26 4 23 22
-4 28 -26 35 -35 11z"/>
<path d="M11218 38 c-38 -13 -36 -38 2 -38 25 0 30 4 30 25 0 14 -1 25 -2 24
-2 0 -15 -5 -30 -11z"/>
</g>
</svg>
